<?xml version="1.0" encoding="utf-8"?>
<!-- Svg Vector Icons : http://www.onlinewebfonts.com/icon -->
<!DOCTYPE svg PUBLIC "-//W3C//DTD SVG 1.1//EN" "http://www.w3.org/Graphics/SVG/1.1/DTD/svg11.dtd">
<svg version="1.1" xmlns="http://www.w3.org/2000/svg" xmlns:xlink="http://www.w3.org/1999/xlink" x="0px" y="0px" viewBox="0 0 256 256" enable-background="new 0 0 256 256" xml:space="preserve">
<metadata> Svg Vector Icons : http://www.onlinewebfonts.com/icon </metadata>
<g><g><g><path fill="#000000" d="M187.2,10.4c-0.6,0.2-1.2,0.8-1.3,1.4c-0.2,0.7-0.5,0.9-1.7,0.6c-0.9-0.2-1.2-0.1-1.1,0.2c0.2,0.3,0,0.6-0.4,0.8c-0.7,0.3-0.6,1.1,0.2,1.1c0.3,0,0.3-0.2,0.2-0.5c-0.1-0.2,0-0.3,0.4-0.2c0.4,0.1,0.6,0.6,0.5,1.1c-0.2,0.8-0.3,0.8-1.2,0.2c-1.5-1-2.3-0.9-1.9,0.3c0.2,0.6,0.1,0.9,0,0.8c-0.2-0.1-1-0.5-1.6-0.8c-1-0.5-1.4-0.5-2.7,0.1c-0.8,0.4-1.4,1.1-1.4,1.4s-0.4,0.7-0.9,0.7c-1.1,0-3.2,1.2-3.2,1.8c0,0.2,0.3,0.5,0.7,0.6c0.6,0.1,0.6,0.2,0,1.2c-0.4,0.6-1.2,1.1-1.8,1.1c-1.1,0-4.3,1-4.8,1.5c-0.6,0.6,1.6,2.2,2.9,2.2c1.3,0,1.2,0.6-0.2,0.7c-3.1,0.2-3.1,0.2-2.3,0.9c0.6,0.5,0.7,0.7,0.3,1.1c-0.7,0.7-0.8,0.6,2.8,0.8c3,0.1,5.1,0.9,5.1,1.8c0,0.3,0.5,1.1,1.1,1.8c0.6,0.6,1.1,1.3,0.9,1.4c-0.1,0.1,0.2,1.2,0.7,2.3c0.8,1.9,0.8,2.2,0.3,2.8c-0.5,0.5-0.6,0.7-0.1,0.9c0.4,0.2,0.4,0.3,0,0.3c-0.7,0-0.8,1,0,1c0.3,0,0.9-0.3,1.3-0.7c0.7-0.6,0.9-0.6,1.9,0.2c1.2,0.9,2,2.8,1.2,2.8c-0.2,0-0.8-0.2-1.3-0.5c-0.5-0.2-1.4-0.4-1.9-0.3c-0.9,0.1-0.7,0.3,0.8,1c1,0.4,2.2,0.7,2.6,0.6c0.6-0.2,0.7,0,0.6,1c-0.1,0.6-0.2,1.3-0.2,1.4c-0.1,0.1-0.1,0.4,0,0.6c0,0.2-0.6,0.6-1.5,0.8c-1.2,0.4-1.3,0.4-0.2,0.3c0.7-0.1,1.3,0.1,1.5,0.5c0.3,0.8-0.3,1.2-1.1,0.7c-0.8-0.5-2.4,0-2.2,0.6c0.1,0.3,0.9,0.6,1.8,0.8l1.6,0.3l-1.8,0.1c-1.3,0-1.7,0.2-1.2,0.5c0.8,0.6,1.1,1.8,0.4,2.2c-0.3,0.1-0.4,0-0.2-0.2c0.2-0.3,0.1-0.6-0.1-0.6c-0.9,0-0.5,1,0.8,2.1c1,0.8,1.3,1.4,1.1,2.2l-0.3,1l0.9-1.1l1-1l1.1,0.9c1.1,1,1.1,1,0.1,0.5c-0.6-0.3-1.1-0.3-1.1,0c0,0.2,0.3,0.6,0.6,0.7c0.3,0.1,0.1,0.1-0.5,0c-0.8-0.2-1.1,0-1.1,0.7c0,0.5,0.4,1,0.9,1.2c0.5,0.2,0.8,0.5,0.7,0.7c-0.2,0.2,0,0.4,0.2,0.4c0.3,0,0.5,0.3,0.3,0.7c-0.1,0.5,0,0.7,0.6,0.7c0.5,0,1,0.4,1.2,0.9c0.1,0.5,0.5,0.9,0.8,0.9c0.3,0,0.9,0.3,1.3,0.7c0.7,0.7,1,0.7,2.3,0c1.6-0.8,2.5-0.6,2.1,0.5c-0.1,0.4-0.1,0.5,0.1,0.4c0.3-0.1,0.6,0,0.8,0.4c0.2,0.4,0.9,0.6,1.9,0.4c1.1-0.1,1.3-0.3,0.9-0.6c-0.4-0.3-0.5-0.4-0.1-0.4c0.3,0,0.5-0.5,0.4-1.2c0-0.6,0-1.2,0.2-1.2c0.7,0,0.8-1.8,0.1-2.2c-0.6-0.4-0.6-0.5,0-1.1c0.4-0.4,0.6-0.8,0.5-0.9c-0.1-0.1,0.1-0.5,0.5-0.8c0.8-0.7,0.9-1.8,0.1-1.8c-0.4,0-0.2-0.3,0.3-0.7c0.8-0.6,0.8-0.7,0.1-1c-1.1-0.4-1-1.1,0.1-1.1c0.6,0,0.8-0.3,0.8-0.8c0-0.5,0.3-0.8,0.9-0.8c0.6,0,0.9-0.3,0.9-0.9c0-0.5,0.3-1,0.6-1.1c0.4-0.1,0.5,0,0.3,0.5c-0.3,0.7-0.1,0.7,0.9,0.2c0.6-0.3,1.2-0.8,1.2-1.2c0-0.3,0.3-0.6,0.6-0.6c0.9,0,1.2-0.5,1.4-2.3c0.1-0.8,0.4-1.7,0.7-2c0.3-0.4,0.4-0.8,0.2-0.9c-0.1-0.2,0.1-0.3,0.7-0.3c1.6,0,6-3.1,6.3-4.5c0.2-0.7,0.3-1.3,0.3-1.5c0-0.1,0.3-0.4,0.6-0.6c0.4-0.2,0.6-0.6,0.6-0.7c0-0.6-3.8,0.3-4.4,1.1c-0.2,0.3-0.8,0.7-1.3,0.9c-0.7,0.3-0.7,0.2,0-0.8c0.4-0.6,0.9-1.2,1.2-1.2s0.4-0.2,0.4-0.5c0-0.3-0.3-0.4-0.7-0.2c-0.5,0.2-0.7,0.1-0.5-0.4c0.2-0.4,0-0.8-0.5-0.9c-0.5-0.1-0.3-0.2,0.4-0.3c0.6,0,1.6,0.3,2.1,0.6c1,0.8,2.5,0.9,2.5,0.2c0-0.2,0.2-0.3,0.5-0.2c0.8,0.5,0.5-0.5-0.5-1.4c-0.5-0.5-0.9-0.7-0.9-0.5c0,0.2-0.3,0.1-0.6-0.1c-0.9-0.7-3.6-1.1-3.6-0.6c0,0.3-0.2,0.5-0.5,0.5c-0.3,0-0.4-0.1-0.4-0.4c0.1-0.9-0.1-1.1-0.7-0.6c-0.6,0.5-0.6,0.5-0.4-0.2c0.3-0.9,0-0.9-1.3-0.2c-0.7,0.4-0.6,0.1,0.4-0.9c0.9-0.9,1.8-1.3,2.3-1.2c0.5,0.1,1.3-0.1,1.8-0.5c0.9-0.7,0.9-0.7,0-1.3c-0.7-0.5-0.8-0.8-0.3-1.3c0.5-0.6,0.4-0.7-0.4-0.9c-0.5-0.1-0.8,0-0.7,0.2c0.1,0.2-0.4,0.1-1.2-0.2l-1.5-0.5l1.4-0.3l1.4-0.3l-1.2-0.8c-0.6-0.5-1.5-0.8-1.8-0.7c-1.5,0.2-1.8,0-1.3-1c0.3-0.5,0.8-0.9,1.2-0.9s0.6-0.2,0.4-0.5c-0.1-0.2-0.9-0.3-1.7-0.1c-1.2,0.2-1.3,0.1-1-0.6c0.3-0.8,0.2-0.8-0.4-0.3c-0.6,0.5-0.8,0.5-1.3-0.5c-0.3-0.6-0.6-1.2-0.5-1.5c0.1-0.2-0.1-0.6-0.4-1c-0.3-0.4-0.4-1-0.2-1.3c0.3-0.8-0.2-0.9-1-0.1c-0.4,0.4-0.6,0.4-0.6,0c0-0.3,0.4-0.7,0.8-1c0.7-0.5,0.7-0.5,0-0.5c-0.6,0-0.7-0.2-0.5-0.6c0.2-0.3,0.4-1,0.4-1.6c0-0.7-0.2-1-1-1c-1.1,0-2.5,1.8-2.5,3.1c0,0.6-0.2,0.5-0.7-0.5c-0.4-0.7-0.9-1.2-1.2-1.2c-0.3,0-0.4,0.2-0.2,0.4c0.1,0.2,0,0.8-0.5,1.2c-0.7,0.8-0.7,0.8-0.4-0.1c0.2-0.8,0.1-0.9-0.6-0.7c-0.5,0.1-1.2,0.5-1.5,0.9c-0.3,0.4-0.7,0.6-1,0.6c-0.9,0,0.7-1.4,2.3-2.1c2.5-1.1,1.7-1.9-1.4-1.7c-0.5,0-0.7-0.1-0.6-0.3C190.4,9.9,188.6,9.9,187.2,10.4z M189.4,11c0,0.1-0.5,0.4-1,0.7c-1,0.5-1,0.5-0.2-0.2C189.2,10.7,189.4,10.7,189.4,11z M185.1,13.4c-0.1,0.1-0.6,0.2-0.9,0c-0.4-0.1-0.2-0.3,0.3-0.3C185,13.1,185.3,13.2,185.1,13.4z M208.6,27.6c0,0.4-0.2,0.7-0.4,0.7c-0.2,0-0.4-0.3-0.4-0.7c0-0.4,0.2-0.7,0.4-0.7C208.5,26.9,208.6,27.3,208.6,27.6z M207.6,35.2c0.1,0.2,0,0.5-0.2,0.5c-0.3,0-0.5-0.2-0.5-0.5c0-0.3,0.1-0.5,0.2-0.5C207.3,34.8,207.5,35,207.6,35.2z M208.5,37.5c-0.1,0.5-0.4,0.9-0.6,0.9c-0.5,0-0.6-1.1-0.1-1.5C208.3,36.3,208.7,36.6,208.5,37.5z M179.5,50.5c-0.1,0.2-0.6,0.5-0.8,0.5c-0.3,0-0.3-0.2,0.1-0.5C179.7,49.9,179.9,49.9,179.5,50.5z M182.4,52.6c-0.1,0.1-0.6,0.2-0.9,0c-0.4-0.1-0.2-0.3,0.3-0.3C182.3,52.3,182.5,52.4,182.4,52.6z"/><path fill="#000000" d="M154.3,15.9c1,1.1,0.6,1.3-0.9,0.6c-1.4-0.7-3.6-0.6-5,0.3c-0.6,0.4-0.5,0.6,0.5,1.4l1.1,1l-1.4-0.3c-3.4-0.8-5.6-1-6.4-0.6c-0.5,0.3-1.9,0.6-3.1,0.6c-1.2,0.1-2.5,0.3-2.7,0.5c-0.8,0.5-0.5,1.1,0.7,1.3c0.8,0.2,1.1,0.6,0.9,1c-0.3,0.9-0.3,0.9,1.5,0c1.8-0.9,4.1-0.7,3.9,0.4c-0.1,0.6,0.3,0.7,2.1,0.8c1.2,0,2.8-0.2,3.5-0.5c1.3-0.5,3.8-0.1,3.4,0.5c-0.1,0.2-1.2,0.5-2.2,0.7c-2.6,0.4-3.4,1.1-2.4,1.9c0.7,0.5,0.7,0.6,0.1,0.6c-0.4,0-1.1-0.3-1.6-0.6c-0.5-0.4-1.8-0.7-2.8-0.7h-1.8l1.6,1.3c0.9,0.8,2.2,1.6,2.9,1.9c1.7,0.7,1.2,1.4-0.6,0.8c-1.8-0.7-3.9-0.4-4.1,0.6c-0.1,0.6,0.1,0.8,1,0.8c0.9,0,1.2,0.2,1.2,0.9c0,0.6,0.3,0.9,0.9,0.9c0.5,0,0.9,0.2,0.9,0.5c0,0.7-2.1,0.6-2.8-0.2c-0.3-0.4-1.1-0.7-1.7-0.7c-0.9,0-1.1,0.2-0.8,0.9c0.2,0.6,0.1,0.9-0.3,0.9c-1,0-1.9,0.8-1.5,1.3c0.2,0.4,0.5,0.4,0.9,0c0.4-0.4,0.7-0.4,0.9,0c0.5,0.8,3.5,0.6,3.5-0.2c0-0.6,0.2-0.6,1.2,0.1c0.8,0.6,1.3,0.6,1.4,0.3c0.2-0.6,2-0.2,2,0.4c0,0.6,2.8,0,3.6-0.8c0.6-0.6,0-0.8-3.6-1.3c-1.5-0.2-0.3-1,1.5-1c1.5,0,1.8-0.1,1.8-0.8c-0.1-0.7,0.1-0.8,1.3-0.5c1.1,0.2,1.4,0.1,1.1-0.3c-0.2-0.4,0-0.8,0.6-1.2c1.4-1,1.2-2-0.4-2c-0.7,0-1.4-0.2-1.4-0.5c0-0.5,0.3-0.6,3-0.5c1,0,1.6-0.1,1.3-0.2c-1.3-0.6-0.6-1.2,1-0.9c2.1,0.4,3.5,0,3.5-1c0-0.5,1.1-1.3,3-2.2c3.1-1.5,3.9-2.4,1.6-1.8c-1.1,0.2-1.4,0.1-1.4-0.4c0-0.8,1.4-1.3,3.4-1.2c1.9,0.1,3.6-0.4,3.4-1.1c-0.2-0.7-1.9-1.2-4.7-1.2c-1.2,0-3-0.3-4.1-0.6c-1.5-0.4-1.9-0.4-2.2,0c-0.2,0.4-0.5,0.5-0.6,0.1c-0.4-0.6-2.1-0.6-2.1,0c0,0.3-0.4,0.4-0.8,0.2c-0.5-0.1-1.4-0.4-2.2-0.6C153.9,15.4,153.8,15.4,154.3,15.9z"/><path fill="#000000" d="M133.2,21.4c0,0.2-0.5,0.5-1,0.5c-0.8,0-0.9,0.1-0.4,0.7c0.5,0.6,0.4,0.7-0.2,1c-0.5,0.2-0.7,0.6-0.6,0.9c0.2,0.4-0.1,0.6-0.7,0.6c-0.9,0-0.9,0-0.2,0.9c0.6,0.6,1.2,0.8,2.5,0.6c1-0.1,2.2,0,2.6,0.3c0.7,0.4,0.6,0.5-0.8,0.5c-1.9,0-2.2,0.4-0.9,1.5c1.1,1,3.8,1.6,3.8,0.9c0-0.3,0.3-0.4,0.7-0.3c0.5,0.2,0.7,0,0.7-0.5c0-0.5,0.2-0.7,0.6-0.6c0.4,0.1,0.9,0,1.2-0.4c0.3-0.4,0.9-0.6,1.3-0.7c0.5,0,0.4-0.1-0.3-0.4c-0.7-0.3-1.1-0.8-1.1-1.6c0-1-0.1-1.2-1.2-0.9c-0.9,0.2-1.2,0.1-1.2-0.5c0-0.4-0.4-0.7-0.8-0.7c-0.5,0-1.3-0.5-1.9-1.2C134.4,20.9,133.2,20.6,133.2,21.4z"/><path fill="#000000" d="M209,24.6c0.1,0.2,0.4,0.5,0.5,0.5c0.1,0,0.2-0.2,0.2-0.5c0-0.3-0.2-0.5-0.5-0.5C209,24.2,208.9,24.4,209,24.6z"/><path fill="#000000" d="M119.5,27.7c1.5,0.8,1.6,1.6,0.2,1.6c-0.9,0-0.9,0.1-0.4,0.5c0.4,0.2,1.5,0.5,2.5,0.5c1.1,0,2.2,0.3,2.7,0.8c0.6,0.5,1,0.6,1.3,0.3c0.7-0.7-1.2-2.9-2.6-2.9c-0.6,0-1.3-0.3-1.6-0.7c-0.3-0.4-1.2-0.7-2-0.7l-1.4,0L119.5,27.7z"/><path fill="#000000" d="M127.2,29.2c0,0.8,1.2,1.5,2.4,1.5c1.5,0,1.7-0.7,0.4-1.4C128.9,28.7,127.2,28.6,127.2,29.2z"/><path fill="#000000" d="M109.3,31.6c0.2,0.7,2.5,0.6,3.3-0.1c0.3-0.3-0.1-0.5-1.5-0.5C109.7,31.1,109.2,31.3,109.3,31.6z"/><path fill="#000000" d="M208.9,31.9c0.4,0.1,1.2,0.1,1.6,0c0.4-0.1,0-0.2-0.8-0.2S208.5,31.7,208.9,31.9z"/><path fill="#000000" d="M102.7,32.6c-1.2,0.2-2.6,0.8-3.3,1.3c-0.6,0.5-1.4,0.9-1.7,0.9c-1.1,0-0.4,0.7,1.1,1.2c1.5,0.5,1.6,0.4,2.3-0.8c0.9-1.4,1.4-1.6,1.8-0.6c0.2,0.6,0.4,0.6,1.2,0.1c0.5-0.3,0.8-0.7,0.6-1c-0.1-0.2,0-0.6,0.3-0.8C106,32.3,104.8,32.1,102.7,32.6z"/><path fill="#000000" d="M129.7,34.5c1.1,0.9,3.1,1,2.9,0.1c-0.1-0.3-1-0.6-2-0.7C128.9,33.8,128.8,33.9,129.7,34.5z"/><path fill="#000000" d="M112.7,34.6c-0.2,0.1,0,0.6,0.4,1.1c0.4,0.5,0.6,1.1,0.4,1.3c-0.4,0.7-2.4,0.6-3-0.2c-0.3-0.4-0.9-0.7-1.3-0.7c-0.4,0-1-0.2-1.3-0.5c-0.6-0.6-2.9-0.2-2.9,0.5c0,0.3,0.2,0.5,0.5,0.5c0.3,0,0.5,0.2,0.5,0.5c0,0.3-0.3,0.5-0.6,0.4c-1.2-0.1-1.8,0-1.5,0.6c0.2,0.4,1.4,0.4,3.7,0.2c3.5-0.3,4.8,0.3,1.8,0.8c-0.9,0.2-1.5,0.5-1.4,0.8c0.4,0.6,2.4,0.5,4.1-0.3c0.8-0.4,2.4-0.8,3.5-0.8c1.7,0,2.1-0.2,2.3-0.9c0.2-1-0.8-2.2-1.2-1.3c-0.3,0.8-1.5,0.2-2-1.1C114.3,34.4,113.4,34,112.7,34.6z"/><path fill="#000000" d="M124.9,35.5c0.4,0.4,0.4,0.6,0,0.6c-0.3,0-0.6-0.2-0.8-0.5c-0.4-0.7-1.2-0.6-1.2,0.2c0,0.4-0.3,0.8-0.6,0.9c-0.3,0.1,0.1,0.3,1.1,0.3c1.5,0,1.6,0.2,1.4,1c-0.2,0.8-0.1,0.9,0.8,0.8c0.6-0.1,1.3-0.6,1.6-1.3c0.8-1.8,0.3-2.6-1.5-2.6C124.6,34.9,124.4,35,124.9,35.5z"/><path fill="#000000" d="M133.6,35.2c0,0.2,0.3,0.6,0.7,1c0.4,0.3,0.6,0.9,0.5,1.3c-0.1,0.4,0,1,0.1,1.2c0.5,0.8,2.9,1.2,3.6,0.6c0.5-0.4,0.7-0.4,0.9,0.2c0.3,0.8,1.8,1,2.2,0.4c0.1-0.2,0.9-0.3,1.7-0.2c0.9,0.1,1.6,0,1.8-0.4c0.4-0.6,0.5-0.5,0.9,0.1c0.6,1,2.7,1.1,2.7,0.2c0-0.4,0.4-0.8,0.8-0.9c0.6-0.3,0.5-0.5-0.8-1.2c-1.2-0.8-1.9-0.9-3.6-0.6c-1.2,0.2-2.4,0.5-2.7,0.8c-0.4,0.3-0.8,0.3-1.4,0c-0.6-0.3-1.2-0.3-1.7,0c-0.7,0.4-1,0.3-1.3-0.3c-0.2-0.4-0.9-0.7-1.4-0.7c-0.9,0-1-0.1-0.2-0.6c0.5-0.3,0.7-0.7,0.5-0.9C136.5,34.6,133.6,34.7,133.6,35.2z"/><path fill="#000000" d="M95.7,40.6c-1.1,0.2-1.2,0.3-0.7,1.1c0.5,0.7,0.4,1.1-0.2,1.7c-1,1.1-1.5,3.4-0.7,3.4c0.3,0,1,0.5,1.6,1c1,0.9,1.2,0.9,2.4,0.4c0.8-0.4,1.4-0.8,1.4-1c0-0.6,3-3.2,4.6-3.9c1.2-0.5,1.4-0.8,1.1-1.2C104.3,41.2,97.8,40.3,95.7,40.6z"/><path fill="#000000" d="M130.9,42.5c-0.5,1.1-0.5,1.6,0,2.4c0.6,1.1,2.1,1.3,1.7,0.3c-0.2-0.5,0.1-0.7,1.1-0.7c0.9,0,1.6-0.4,2.3-1.4l1-1.4h-1.3c-0.7,0-2-0.1-2.7-0.3C131.6,41.2,131.4,41.3,130.9,42.5z"/><path fill="#000000" d="M125.9,42.1c-1.7,0.1-1.9,0.3-1.4,0.8c0.8,0.9-0.3,2.3-1.3,1.5c-0.3-0.3-0.7-0.4-0.9-0.3c-0.4,0.4,0.7,1.7,1.4,1.7c0.3,0,1.1,0.6,1.8,1.2c1.1,1,1.4,1.2,1.7,0.6c0.2-0.3,0.6-0.5,0.9-0.3c0.3,0.2,0.7-0.2,1-1c0.4-1.1,0.3-1.4-0.3-1.8c-0.5-0.3-1-0.6-1.2-0.6c-0.3,0-0.1-0.4,0.3-0.9C128.8,42.1,128.4,41.9,125.9,42.1z"/><path fill="#000000" d="M139.1,43.4c-1,0.8-1.4,1.5-1.2,2.2c0.1,0.5,0,1.2-0.2,1.4c-0.3,0.4,0.1,0.7,1.5,1.2c1.8,0.6,1.8,0.6,0.6,0.8c-1.7,0.2-1.3,1.2,0.4,1.2c0.7,0,1.4,0.1,1.6,0.3c0.4,0.6,6.4,1.2,6.6,0.7c0.1-0.3,0.5-0.2,1.1,0.1c0.6,0.3,1.1,0.3,1.3,0.1c0.1-0.3-0.3-0.8-1-1.2c-1.7-0.9-1.1-0.9,1-0.1c0.9,0.4,1.6,0.9,1.6,1.2c0,0.3,0.3,0.5,0.6,0.5c0.4,0,1,0.4,1.4,0.9c0.8,0.8,0.8,0.9,0,1.1c-0.5,0.2-0.4,0.2,0.3,0.2c1.4-0.1,4,1.6,4.3,2.9c0.1,0.6-0.2,1.3-0.9,2c-0.7,0.7-1,1.4-0.8,1.8c0.3,0.8-1.6,1.6-3.2,1.3c-0.9-0.1-2.2,0.7-2.2,1.4c0,0.6,4.3,0.3,4.7-0.2c0.2-0.2,0.7,0,1.2,0.5c0.5,0.5,1.2,1,1.7,1.2c0.4,0.1,0.8,0.6,0.8,0.9c0,0.6,2.8,2,5.4,2.9c1,0.3,1.1,0.2,0.6-0.6c-0.3-0.5-1-1.2-1.7-1.5c-0.6-0.3-1.2-0.8-1.2-1c0-0.5,1.8-0.2,2.4,0.5c0.3,0.3,0.8,0.6,1.1,0.6s0.7,0.3,0.8,0.6c0.1,0.3,0.2,0,0.1-0.7c-0.1-0.7,0-1.2,0.3-1.2c0.2,0,0-0.5-0.4-1.2s-0.9-1.2-1.2-1.2c-0.5,0-2.6-2.4-2.7-3c0-0.2,0.3-0.1,0.7,0.2c0.6,0.5,0.6,0.5,0.4-0.2c-0.1-0.4-0.1-0.7,0.1-0.7c0.8,0,2.9,1.2,2.9,1.6c0,0.3,0.4,0.7,0.9,1.1c0.8,0.5,0.9,0.5,0.9-0.4c0-0.5,0.1-0.9,0.4-0.9c0.9,0.1,1.5-0.1,1.3-0.5c-0.1-0.2,0-0.6,0.5-0.7c0.4-0.1,0.6-0.5,0.4-0.8c-0.2-0.3-0.6-0.4-1-0.2c-0.3,0.1-0.7,0-0.9-0.2c-0.2-0.3-0.7-0.5-1.3-0.5c-0.7,0-0.8-0.1-0.4-0.4c0.5-0.3,0.5-0.5,0-0.8c-0.3-0.3-1-0.5-1.4-0.5c-0.5,0-1.5-0.4-2.4-0.8c-1.4-0.8-1.5-1-1.1-2.2c0.3-0.7,0.6-1.3,0.9-1.3c0.2,0,0.3-0.2,0.1-0.5c-0.1-0.3-0.8-0.3-1.5-0.2c-1,0.2-1.2,0.2-0.6-0.3c0.9-1,0.6-1.4-0.6-1.1c-0.7,0.2-1.2,0.1-1.2-0.2c0-0.3-0.3-0.5-0.7-0.5c-0.4,0-0.6-0.2-0.4-0.5c0.5-0.7-1.1-1.1-1.8-0.5c-0.6,0.5-0.7,0.5-0.7,0c0-0.3-0.4-0.5-0.9-0.3c-1,0.3-1.2-0.1-0.5-0.9c0.7-0.7-0.3-1.4-2.4-1.8c-1.6-0.3-1.8-0.2-2,0.6c-0.3,1.1-0.9,1.3-1.2,0.4c-0.1-0.4-0.4-0.4-1,0.1c-1,0.9-1.5,0.3-0.8-1.1c0.4-0.9,0.3-1.2-0.6-2.1c-1-0.9-1.2-1-2.8-0.5c-1.1,0.4-1.5,0.7-1.2,0.9c0.4,0.2,0.2,0.4-0.6,0.6c-1,0.3-1,0.3-0.2,0.9c1,0.8,1,1.2,0,1.2c-0.6,0-0.6,0.1,0.1,0.9c0.6,0.7,0.7,1.1,0.4,1.4c-0.6,0.6-1.7,0.1-1.3-0.5c0.1-0.2,0-0.5-0.2-0.6c-0.2-0.1-0.6-1-0.7-1.9c-0.2-1.2-0.1-1.9,0.5-2.5c0.7-0.8,0.7-0.9-0.4-0.9C141.1,42.2,139.9,42.7,139.1,43.4z"/><path fill="#000000" d="M103.9,44.6c-3,1.7-2.4,3,1.1,3.1c0.6,0,0.9,0.2,0.8,0.5c-0.1,0.2-0.9,0.5-1.6,0.5c-0.7,0-1.5,0.2-1.6,0.5c-0.2,0.3,0.8,0.5,2.7,0.5c1.6,0,3.6,0.3,4.3,0.6c1.2,0.6,1.2,0.6-1.2,0.7c-1.4,0.1-3,0.3-3.6,0.4c-1.6,0.3-0.6,1.4,1.8,1.8c1.2,0.2,1.8,0.6,1.8,1c0,1,3.4,0.9,6.4-0.2c2.2-0.8,2.6-0.8,4.1-0.2c1.7,0.7,3.8,0.6,3.8-0.3c0-0.3-0.4-0.5-1-0.5c-0.6,0-0.8-0.2-0.6-0.5c0.1-0.3,0.9-0.4,1.6-0.2c2.1,0.4,1.6-0.5-0.8-1.7c-1.7-0.8-2.3-1.3-2.4-2.2c-0.1-0.6-0.4-1.3-0.6-1.6c-0.2-0.3-0.4-0.8-0.4-1.3c0-0.9-1.3-1.8-2.6-1.8c-0.6,0-0.7,0.3-0.5,1.8c0.3,2.2-0.3,2.4-1.1,0.5c-0.4-1.2-1.9-2-1.9-1c0,0.8-1.5,1-2.1,0.2c-0.4-0.6-0.9-0.7-1.8-0.5c-0.9,0.2-1.2,0.1-1.2-0.4C107.3,43.3,106,43.4,103.9,44.6z"/><path fill="#000000" d="M176.7,44.9c-0.4,0.6,0.8,1.8,1.8,1.8c0.4,0,0.9-0.3,1.2-0.6c0.4-0.5,0.2-0.7-0.7-1.2C177.6,44.3,177.1,44.3,176.7,44.9z"/><path fill="#000000" d="M130.7,47c-0.1,0.1-0.1,0.6,0,0.9c0.1,0.4,0,0.6-0.4,0.6c-0.4-0.1-0.6,0.4-0.6,1.4c0,1.5,0.1,1.6,2,2.2c1.1,0.4,1.9,0.9,1.9,1.1c0,0.2-0.3,0.3-0.6,0.1c-0.4-0.1-0.8,0-1,0.3c-0.1,0.3,0,0.4,0.3,0.4c1.1-0.3,0.9,0.9-0.3,1.5c-0.7,0.4-1.2,1-1.2,1.8c0,1-0.1,1-0.7,0.6c-0.4-0.3-0.7-1-0.7-1.4c0-0.5-0.2-0.9-0.4-0.9c-0.2,0-0.8-0.1-1.3-0.3c-0.8-0.2-0.8-0.2,0,0.3c0.4,0.3,0.8,0.6,0.8,0.8c0,0.5-6.6,0.3-8.1-0.3c-0.7-0.3-2.1-0.4-3.1-0.3c-1.5,0.3-1.8,0.5-1.7,1.3c0.1,0.6,0,1.1-0.3,1.1c-0.2,0.1-0.5-0.1-0.5-0.4c0-0.9-2.6-1.7-4.2-1.2c-1.3,0.4-4.8,0.1-4.8-0.4c0-0.1,0.4-0.6,0.8-0.9c0.9-0.7,0.8-0.7-2.9-1.4c-1.2-0.3-3.3-0.9-4.5-1.3c-1.8-0.7-2.4-0.8-3.2-0.2c-0.8,0.5-1,0.5-1.4,0c-0.3-0.5-0.5-0.5-0.7,0c-0.4,1-1.2,0.7-2.6-0.9c-0.7-0.8-1.2-1.2-1-0.8c0.3,0.7,0,0.9-3.3,2.4c-0.7,0.3-1.7,0.8-2.1,1.2c-0.8,0.6-2,0.4-1.5-0.4c0.1-0.2,1.2-0.8,2.4-1.3c1.2-0.6,2-1.2,1.8-1.3c-0.1-0.2-0.8,0-1.4,0.2c-0.6,0.3-1.6,0.8-2.2,1.1c-0.6,0.3-1.2,0.4-1.5,0.4c-1.3-0.2-2.1,0.1-1.8,0.8c0.2,0.6,0,0.6-1.2,0.4c-0.8-0.1-2.1-0.6-2.9-0.9c-3.1-1.3-4.7-1.8-6.5-1.8c-1.1,0-2.8-0.3-3.9-0.5c-1.2-0.2-2.8-0.3-3.7-0.3c-1.1,0-1.8-0.2-2.3-0.6c-0.4-0.5-1.2-0.7-2.4-0.6c-1.2,0-1.9-0.1-2.2-0.5c-0.3-0.5-0.6-0.5-1.5,0.1c-0.6,0.4-1.6,0.7-2.1,0.7c-0.6,0-1.1,0.2-1.1,0.5c0,0.2-0.5,0.5-1.2,0.5c-1.2,0-3.5,1.8-3.5,2.7c0,0.3-0.7,0.6-1.6,0.8c-2.2,0.4-2.4,0.9-0.6,1.8c0.8,0.4,1.7,1.1,1.9,1.4c0.2,0.4,0.9,0.6,1.5,0.6c0.6,0,1.2,0.2,1.2,0.4c0,0.2,0.6,0.6,1.3,0.8c1.2,0.5,1.2,0.5-1.1,0.9c-1.6,0.2-2.3,0.2-2.4-0.2c-0.2-0.7-1.1-0.6-3.4,0.4l-2,0.9l1.3,0.5c1,0.4,1.2,0.6,0.7,0.9c-0.3,0.2-0.4,0.5-0.2,0.6c0.8,0.5,4.5,0.5,5.6-0.1c0.6-0.3,1-0.5,1.1-0.4c0.3,1.2,0.1,2.8-0.5,3c-0.4,0.1-1.2,0.4-1.7,0.7c-0.5,0.3-1.2,0.4-1.4,0.2c-0.5-0.3-2.4,2.4-2.4,3.3c0,0.3,0.6,0.6,1.4,0.8c0.8,0.2,1.4,0.5,1.4,0.7c0,0.2-0.3,0.3-0.7,0.2c-0.8-0.3-0.9,0.6-0.1,1.1c0.3,0.2,1.1,0.4,1.8,0.4c0.9,0,1.2,0.3,1.3,1.2c0.1,1.2,0.3,1.2,1.1,0.8c0.7-0.4,1.1-0.3,1.6,0.1c0.5,0.4,0.8,0.4,1,0.1c0.2-0.3,0.8-0.4,1.3-0.2c1,0.3,1,0.3,0.2,1.9c-0.4,0.9-1.3,1.9-2,2.2c-1.2,0.6-1.7,1.5-0.7,1.5c0.3,0,1-0.4,1.7-0.9c0.6-0.5,1.5-0.9,1.8-0.9c0.4,0,0.6-0.3,0.6-0.7c0-0.4,0.1-0.7,0.4-0.7c0.2,0,1-0.4,1.8-0.9c1.2-0.7,1.4-1.1,1.1-1.6c-0.4-0.4,0.1-1.1,1.8-2.7c2.1-1.9,3.6-2.4,3.6-1.2c0,0.2-0.2,0.3-0.5,0.1c-0.6-0.4-2.3,1.5-2,2.3c0.3,0.6,0.4,0.6,1.4,0c0.6-0.4,1.4-0.7,1.8-0.7c0.6,0,0.7-0.3,0.5-0.9c-0.4-1.3,0.5-1.6,2.2-0.8c0.8,0.4,1.7,0.7,2.1,0.7c0.3,0,0.6,0.2,0.6,0.4c0,0.2,1.4,0.5,3.1,0.6c1.7,0.2,3.2,0.5,3.3,0.6c0.1,0.2,0.9,0.8,1.8,1.4c1,0.7,1.5,0.9,1.7,0.5c0.1-0.4,0.4-0.4,1,0.1c0.8,0.6,0.8,0.6,0.5-0.5c-0.3-1-0.2-1,1.1,0.5c0.7,0.9,1.4,1.8,1.4,2.1c0,0.3,0.4,0.9,0.9,1.3c0.5,0.5,0.8,1,0.6,1.2c-0.1,0.2,0.1,0.4,0.6,0.3c0.6-0.1,0.9,0.2,1,0.9c0.1,0.6,0.4,0.9,0.8,0.8c0.5-0.2,0.6,0,0.4,0.7c-0.2,0.7,0.2,1.4,1.2,2.4c0.8,0.7,1.7,1.4,2,1.4c0.4,0,0.4,0.1,0,0.5c-0.9,0.9-0.1,2.2,1.5,2.5c0.9,0.1,1.6,0.6,1.6,0.9c0,0.3,0.4,0.7,0.9,0.8c1.2,0.3,2.5,2.4,2.2,3.4c-0.2,0.6-0.3,0.6-1,0c-1.1-1.1-2.2-1-1.6,0.1c0.3,0.6,0.4,3.1,0.3,6.4c-0.2,5,0,5.9,1.2,8c0.2,0.4,0.5,1,0.7,1.4c0.2,0.4,0.4,0.8,0.6,0.9c0.1,0.1,0.7,1,1.2,2c0.6,1.2,1.5,2,2.8,2.6c1.6,0.7,2,1.2,2.7,3.3c0.5,1.3,1.4,3,2,3.6c0.7,0.7,1.1,1.5,0.9,2c-0.2,0.6,0.1,1.1,1.1,1.7c0.7,0.5,1.5,1.2,1.6,1.8c0.3,1.1,3,3.9,3,3c0-0.3-0.3-0.7-0.6-0.9c-0.3-0.2-0.9-1.1-1.2-2c-0.6-1.6-2.9-5.1-4-6.4c-0.3-0.3-0.6-1.1-0.6-1.7c0-1.8,1.8-0.9,2.8,1.3c0.5,1.1,1.6,2.6,2.5,3.5c0.9,0.9,1.7,1.8,1.7,2.2c0,0.4,0.1,0.6,0.4,0.6c0.2,0,1.2,1.1,2.4,2.4c1.5,1.7,2.1,2.8,2.1,3.9c0.1,1.4,1.8,3.9,2.7,3.9c0.2,0,2,0.7,3.9,1.7c3,1.4,3.9,1.6,5.5,1.3c1.7-0.2,2.1-0.1,3.5,1.1c1.3,1.2,4.4,2.6,5.7,2.6c0.7,0,2.9,2.6,3,3.7c0.1,0.5,0.5,0.9,0.8,0.9c0.3,0,1.1,0.4,1.6,1c0.6,0.5,1.6,1.1,2.3,1.3c0.7,0.1,1.2,0.5,1.2,0.8c0,0.3,0.2,0.3,0.5,0.2c0.3-0.2,0.4-0.5,0.2-0.7c-0.4-0.6,1.1-1.5,2-1.2c1.4,0.5,1,2.3-0.7,2.8c-0.9,0.3-1.5,0.7-1.5,1.2c0,0.5-0.3,0.9-0.7,1.1c-0.4,0.1-0.7,0.6-0.7,0.9c0,0.3-0.3,0.7-0.7,0.9c-0.5,0.1-0.6,0.7-0.5,1.7c0.1,0.7,0.3,2,0.5,2.7c0.1,1.1-0.1,1.7-1.5,3.2c-1.9,2-2.9,3.8-2.9,5.3c0,0.6,0.2,0.8,0.7,0.6c1.1-0.4,0.8,0.4-0.5,1.6c-0.9,0.8-1,1.2-0.6,1.9c0.2,0.5,0.3,0.9,0.1,0.9s0.2,0.5,0.8,1.1c1.2,1.2,2.2,3,4.6,8.3c1.2,2.7,1.8,3.3,3.9,4.5c3.2,1.8,4,2.7,4.1,4.9c0.1,3-0.5,10.3-1,11.3c-0.2,0.5-0.5,1.3-0.5,1.9c0,3.7-0.4,6.9-1.2,8.9c-0.5,1.2-1,2.4-1.2,2.4c-0.2,0.1-0.2,0.9-0.1,1.9c0.1,1,0,2.2-0.3,2.7c-0.6,1.2-0.2,2.5,0.7,2.2c0.5-0.2,0.6,0.4,0.5,2.5c0,1.5-0.2,2.8-0.4,2.8c-0.2,0-0.4,0.6-0.6,1.4c-0.2,1.2-0.4,1.3-0.9,0.9c-0.5-0.4-0.7-0.4-1,0c-0.1,0.2,0,0.6,0.5,0.7c0.4,0.2,0.6,0.6,0.5,0.9c-0.1,0.4,0,0.6,0.2,0.6c0.3,0,0.3,0.3,0,0.9c-0.3,0.6-0.4,1.3-0.3,1.8c0.1,0.4,0.4,1.5,0.5,2.4c0.1,1,0.6,1.9,1.4,2.6c1.5,1.3,1.5,1.3,3.4,0.6c1.3-0.4,1.4-0.6,1.2-2c-0.2-1.2,0-1.6,0.7-2c0.5-0.3,1-0.9,1-1.4c0-0.5,0.5-1.2,1.2-1.6c1.2-0.8,1.6-2.1,0.5-2.1c-0.4,0-0.9-0.5-1.2-1c-0.5-0.9-0.4-1.2,0.9-2.2c0.8-0.7,1.4-1.6,1.4-2c0-0.4,0.2-0.8,0.4-1c0.2-0.1,0.3-1.1,0.2-2.1c-0.2-1.8-0.2-1.8,1.2-1.6c1.5,0.3,1.9,0,2-1.8c0.1-1,0.4-1.2,1.3-1.2c2.4,0,4.5-0.9,5-2.1c0.4-0.9,0.4-1.4,0-1.8c-0.3-0.3-0.4-0.8-0.4-1.1c0.1-0.3-0.3-0.8-0.8-1.2c-0.9-0.7-0.9-0.7,0.3-0.7c0.6,0,1.3,0.1,1.5,0.3c0.2,0.1,0.9,0.3,1.5,0.4c1.3,0,3.9-2.4,3.9-3.8c0-0.8,1.5-2.9,2.2-2.9c0.8,0,2.4-3.4,2.4-5c0-1.1,0.3-2,0.8-2.4c1.5-1.3,4.2-2.7,5.6-2.7c0.7,0,1.6-0.4,2-0.8c1.1-1.2,2.7-4.3,2.5-4.6c-0.1-0.1,0-0.6,0.3-1.2c0.3-0.5,0.6-2.2,0.6-3.8c0-1.9,0.3-3.1,0.9-3.7c3.4-3.8,4.2-5.2,4-7.1c-0.2-2.1-0.6-2.8-1.5-2.8c-0.6,0-1.7-0.6-2.6-1.4c-1.5-1.3-2.8-1.7-6.6-1.5c-0.8,0-1.2-0.2-1.2-0.7s-0.6-1-1.9-1.4c-1.8-0.7-2-0.6-2.6,0.2c-0.5,0.7-1,0.9-1.8,0.8c-0.6-0.1-1.2-0.4-1.2-0.6c0-0.2-0.3-0.3-0.7-0.1c-1.1,0.4-0.8-0.5,0.5-1.8c1.2-1.3,1.4-1.9,0.7-2.4c-0.2-0.1-0.6-0.8-0.7-1.5c-0.4-1.9-3.2-3.8-5.5-3.8c-1.6,0-2.2-0.3-3.9-1.9c-1.2-1.2-2.3-1.8-2.7-1.6c-0.5,0.2-0.6,0.1-0.5-0.4c0.2-0.4,0.1-0.8-0.1-0.9c-0.2-0.1-0.3-0.6-0.2-1.1c0.2-0.7,0.2-0.7-0.3,0c-0.3,0.4-0.7,0.7-1,0.6c-0.2-0.2-0.3-0.5-0.2-0.7c0.4-0.6-1-0.5-2.1,0.1c-0.7,0.5-1.1,0.5-1.8,0c-0.5-0.3-1.2-0.5-1.6-0.3c-0.4,0.2-1.1,0-1.6-0.5c-0.6-0.6-1.2-0.7-2.3-0.5c-1.3,0.3-1.4,0.4-1.2,1.7c0.3,1.1,0.2,1.3-0.3,1.2c-0.7-0.3-0.6-3.3,0-3.5c0.3-0.1,0.3-0.4,0.2-0.6c-0.1-0.3-0.6-0.2-1,0.1c-0.4,0.3-0.6,0.4-0.4,0.1c0.1-0.3,0-0.9-0.3-1.3c-0.6-0.9-2-1-4.1-0.5c-1,0.3-1.5,0.1-2.4-1c-1.1-1.2-1.2-1.6-1-4.1c0.3-3.5-0.2-4-3.6-4h-2.5l0.3-1.5c0.6-2.4,0.8-3.1,1.5-4.8c0.4-0.9,0.3-1-1.2-1c-2.1,0-3,0.4-3,1.3c0,1.2-1.2,2.5-2.4,2.6c-2.6,0.3-4-0.3-5.3-2.2c-1.4-2-1.6-4.1-0.8-8.6c0.3-2.1,0.6-2.6,1.8-3.4c2.4-1.4,3.1-1.6,5-1.2c2.7,0.6,2.9,0.5,3.2-0.5c0.2-0.7,0.6-0.9,2.3-0.8c1.2,0,2.4,0.3,2.8,0.6c0.5,0.5,0.8,0.5,1,0.1c0.5-0.8,2.5,1.3,2.5,2.6c0,0.6,0.5,1.8,1.1,2.8l1.2,1.7l0.5-1.1c0.4-0.9,0.3-1.7-0.4-3.7c-0.6-1.3-1-3-1-3.5c0-1,2.8-4.3,3.6-4.3c0.2,0,1.1-0.6,1.9-1.5c1-1,1.3-1.6,0.9-1.8c-0.4-0.3-0.4-0.4,0.1-0.6c0.5-0.2,0.5-0.4,0.1-0.5c-0.3-0.1-0.5-0.7-0.3-1.2c0.1-0.5,0-0.9-0.2-0.9c-0.3,0-0.4-0.5-0.2-1c0.3-0.9,0.3-0.9,0.8,0.3c0.5,1.1,0.6,1.2,0.9,0.6c0.2-0.4,0.2-1,0-1.3c-0.1-0.2,0-0.5,0.4-0.5c0.7,0,1.4-1.2,1-1.8c-0.2-0.3,1.2-1,3.3-1.6c0.7-0.2,1-0.6,1-1.4c0-1.5,0.7-2.3,2.5-3c0.8-0.3,1.6-0.7,1.7-0.9c0.4-0.6,3-1.2,3.9-1c0.7,0.2,0.6,0.3-0.7,0.7c-0.9,0.3-1.7,0.9-1.8,1.3c-0.2,1,1,1.1,1.7,0.2c0.3-0.4,1.3-0.9,2.4-1.2c1-0.3,1.8-0.8,1.8-1c0-0.2,0.3-0.4,0.6-0.4c0.4,0,0.8-0.2,1-0.6c0.2-0.3,0.1-0.4-0.4-0.2c-0.6,0.2-0.6,0.1-0.5-0.5c0.2-0.5,0.1-0.6-0.2-0.4c-0.3,0.2-0.6,0.6-0.6,1c0,1-2.9,0.8-3.8-0.2c-0.5-0.5-0.8-1.2-0.8-1.6c0-0.4-0.4-0.9-0.8-1.1c-0.7-0.3-0.7-0.4,0.2-0.6c1.4-0.4,1.3-1.2-0.1-1.3c-1.3-0.2-3.7,0.9-5.4,2.6c-0.7,0.6-1.3,1.1-1.3,0.9c0-0.6,3.3-4,3.9-4c0.3,0,0.8-0.4,1.1-0.9c0.5-0.8,1.1-0.9,4.7-0.9c3.4,0,4.2-0.1,5.1-0.9c0.6-0.5,1.5-0.9,2.1-0.9c2.2,0,2.5-2.9,0.5-3.9c-1.2-0.6-1.4-0.6-2.1,0c-0.8,0.7-1.8,0.9-1.8,0.3c0-0.2,0.7-0.7,1.6-1l1.7-0.6l-1.7-0.6c-2.2-0.9-3.7-2.5-3.7-4c0-0.6-0.4-1.6-0.8-2c-0.4-0.4-0.7-1-0.7-1.2c0-0.2-0.3-0.8-0.7-1.4c-0.9-1.3-1.8-1.1-2.3,0.6c-0.1,0.6-0.4,1.1-0.6,0.9c-0.1-0.1-0.6,0-0.9,0.4c-0.8,0.8-1.5,0.9-1.5,0.2c0-0.3-0.5-0.5-1.1-0.5c-1,0-1.1-0.2-1-2.3c0-1.2,0-2.3-0.2-2.3c-0.9,0.1-1.6-0.2-2.5-1.2c-0.9-1-1.6-1.2-4.1-1.3c-3.3-0.2-3.9,0-3.1,1c0.4,0.5,0.4,0.8,0,1.3c-0.4,0.5-0.4,0.7,0,0.7c0.7,0,0.6,1.9-0.1,3c-0.6,0.8-0.5,1.1,0.7,2.4c0.7,0.8,1.3,1.8,1.3,2.2c0,0.9-2.2,3.4-3.3,3.7c-0.6,0.2-0.8,0.5-0.5,0.8c1.1,1.4,1.1,5.8,0,5.1c-0.2-0.1-0.4,0-0.4,0.3c0,0.3-0.6,0-1.3-0.6c-1.4-1.1-2-2.8-2-5.1c0-1.2-0.1-1.2-1.8-1.2c-1,0-1.9-0.2-2.1-0.5c-0.1-0.3-0.6-0.5-1.1-0.5s-1.4-0.5-2.1-1.2c-1.2-1.1-3.6-1.8-4.8-1.5c-0.4,0.1-0.8-0.5-1.1-1.4c-0.3-1-0.6-1.5-1.3-1.5c-0.5,0-1-0.3-1.2-0.7c-0.4-1.2,0.7-4.1,2.1-5.7c0.7-0.8,1.2-1.5,1.1-1.7c-0.1-0.1,0.1-0.2,0.5-0.2c1.4,0,1.3-0.9-0.2-1.6c-1.7-0.7-0.6-1,1.2-0.3c1,0.4,1.2,0.3,1.2-0.3c0-0.5,0.3-0.6,0.7-0.5c0.9,0.3,2.5-0.5,2.5-1.3c0-0.3-0.8-1-1.8-1.4c-1-0.5-1.7-1-1.6-1.2c0.1-0.2,0.9,0,1.8,0.4c1.3,0.6,1.7,0.6,2.3,0.1c0.4-0.3,0.6-0.9,0.5-1.2c-0.3-0.7,1-1.2,1.3-0.6c0.2,0.3,0.6,0.5,1.1,0.5c0.6,0,0.6-0.1,0.2-0.6c-0.9-0.9-0.6-1.5,0.3-0.7c1,0.9,2,1,2.8,0.2c0.7-0.7,0.7-2-0.1-2.7c-0.4-0.3-0.7-0.9-0.7-1.2c0-0.4,0.3-0.6,0.7-0.4c1,0.4,0.9-0.8-0.1-1.4c-1.5-0.9-3.8-1.2-3.8-0.6c0,0.4,0.2,0.9,0.6,1.2c0.4,0.4,0.3,0.6-0.2,0.8c-0.4,0.1-0.8,0.5-0.8,0.8c0,0.3-0.4,1-0.9,1.7l-0.9,1.2l-1.1-1c-0.8-0.8-0.9-1.2-0.5-1.6c0.4-0.4,0.4-0.8,0.1-1.4c-0.6-1.1-1.2-1.1-1.6,0.1c-0.4,1.3-1,1.2-1.4-0.5c-0.2-1.1-0.6-1.4-1.4-1.4c-1.2,0-1.4-0.4-0.6-1.2c0.4-0.4,0.3-0.7-0.2-1.1c-0.4-0.3-0.7-1-0.7-1.4c0-0.6-0.5-1.1-1.2-1.3C131,46.7,131.1,46.7,130.7,47z"/><path fill="#000000" d="M127.2,52.5c0,0.4-0.3,0.7-0.6,0.7c-1.2,0,1.2,1.4,2.5,1.4c1.6,0,1.7-0.6,0.1-1.8C127.7,51.7,127.2,51.6,127.2,52.5z"/><path fill="#000000" d="M164.9,53.1c0.3,0.1,0.7,0.1,0.9,0c0.2-0.1-0.1-0.3-0.6-0.2C164.7,52.8,164.5,52.9,164.9,53.1z"/><path fill="#000000" d="M153.3,56.2c-0.1,0.3,0,0.8,0.2,1.1c0.6,0.6,2.2-0.1,2.2-1.1C155.8,55.3,153.6,55.3,153.3,56.2z"/><path fill="#000000" d="M142.4,62.2c-0.3,0.7-0.4,1.4-0.3,1.6c0.1,0.1,0,0.5-0.3,0.9c-0.4,0.5-0.4,0.6,0.2,0.6c0.4,0,0.8,0.2,0.9,0.5c0.1,0.3,0.6,0.3,1.4-0.1c0.7-0.3,1.2-0.7,1-0.9c-0.4-0.7,0.9-0.5,1.7,0.3c0.6,0.5,1.1,0.6,1.7,0.4c0.7-0.3,0.7-0.4-0.2-0.5c-0.6-0.1-1.1-0.5-1.1-0.7c0-0.6-2.5-2.2-3.5-2.2c-0.3,0-0.7-0.3-0.8-0.6C143,61.1,142.7,61.4,142.4,62.2z"/><path fill="#000000" d="M80.1,76.7c0,0.2,0.3,0.5,0.7,0.5c0.4,0,0.7-0.2,0.7-0.5c0-0.3-0.3-0.5-0.7-0.5C80.4,76.3,80.1,76.5,80.1,76.7z"/><path fill="#000000" d="M59.1,77.2c-0.1,0.3-0.5,0.4-0.7,0.3c-0.2-0.1-0.5,0-0.6,0.2c-0.2,0.2,0,0.6,0.2,0.7c0.6,0.4,2.2-1,1.7-1.4C59.6,76.8,59.3,76.9,59.1,77.2z"/><path fill="#000000" d="M81.5,78.4c0,0.5,0.1,0.6,0.3,0.3c0.1-0.3,0.1-0.7,0-0.9C81.6,77.6,81.5,77.9,81.5,78.4z"/><path fill="#000000" d="M83.8,80.2c0,0.7,0.8,1.8,1.1,1.6c0.1-0.1,0-0.6-0.4-1.2C84.1,80.2,83.9,79.9,83.8,80.2z"/><path fill="#000000" d="M48.3,81.1c-0.7,0.9,0,0.9,1.1,0c0.7-0.6,0.8-0.7,0.2-0.7C49.2,80.4,48.6,80.8,48.3,81.1z"/><path fill="#000000" d="M45.3,82.7c-0.2,0.2,0.1,0.3,0.6,0.2c1.1-0.3,1.2-0.6,0.3-0.6C45.9,82.3,45.5,82.5,45.3,82.7z"/><path fill="#000000" d="M84.4,84.1c0.1,0.3,0.3,0.6,0.5,0.6c0.6,0,0.4-0.7-0.1-0.9C84.4,83.6,84.2,83.8,84.4,84.1z"/><path fill="#000000" d="M178,89.5c-0.5,0.7-1.1,2-1.2,2.8c-0.1,0.8-0.5,1.5-0.7,1.5c-0.2,0-0.4,0.2-0.4,0.5s0.8,0.5,2,0.4c3.2-0.1,3.3-0.1,2.6,0.8c-0.5,0.7-0.4,0.6,0.4,0c1-0.9,1.1-0.9,1.7,0c0.4,0.6,0.7,0.7,0.9,0.3c0.2-0.3,0-0.6-0.4-0.8c-0.4-0.2-0.6-0.6-0.5-0.9c0.1-0.4,0-0.6-0.2-0.6c-0.3,0-0.4-0.3-0.2-0.7c0.2-0.5,0-0.7-0.9-0.7c-0.6,0-1.2-0.2-1.4-0.5c-0.2-0.3-0.5-0.4-0.7-0.2c-0.2,0.2-0.4,0.1-0.4-0.2c0-0.2,0.2-0.6,0.4-0.7c0.6-0.4,1-2.1,0.5-2.1C179,88.3,178.5,88.8,178,89.5z"/><path fill="#000000" d="M91,90.4c0.6,0.4,1.6,1.2,2.3,1.8c1.2,1,2.4,1.5,2.4,0.8c0-0.8-2.8-2.9-4.2-3.1C90.1,89.7,90.1,89.7,91,90.4z"/><path fill="#000000" d="M144.8,132c-1.2,0.5-0.6,1,0.7,0.6c1.1-0.4,1.7-0.3,2.8,0.2c0.7,0.4,1.7,0.7,2,0.7c0.3,0,1.2,0.5,1.8,1.2c0.8,0.7,1.8,1.2,2.8,1.2h1.5l-1.2-0.9c-0.6-0.5-1.5-0.9-1.9-0.9c-0.5,0-0.8-0.2-0.8-0.5c0-0.3-0.3-0.5-0.6-0.5c-0.3,0-1.2-0.3-1.9-0.7C148.6,131.7,146,131.4,144.8,132z"/><path fill="#000000" d="M56.1,136.2c0,0.2,0.2,0.5,0.5,0.5c0.3,0,0.5-0.2,0.5-0.5c0-0.3-0.2-0.5-0.5-0.5C56.4,135.8,56.1,136,56.1,136.2z"/><path fill="#000000" d="M158.4,136.7c0.6,0.7,0.6,0.8-0.6,1l-1.3,0.3l1.6,0.1c0.9,0.1,1.9,0.1,2.3,0c0.4,0,1.2-0.1,1.9-0.2c0.7,0,1.3-0.2,1.3-0.4c0-0.5-2.7-1.5-4.3-1.6C157.8,135.9,157.7,136,158.4,136.7z"/><path fill="#000000" d="M165.4,138.1c0,0.2,0.3,0.5,0.7,0.5c0.4,0,0.6-0.2,0.4-0.5c-0.1-0.3-0.5-0.5-0.7-0.5C165.6,137.6,165.4,137.8,165.4,138.1z"/><path fill="#000000" d="M152.4,138.4c0.3,0.1,0.8,0.1,1.2,0c0.3-0.1,0-0.2-0.6-0.2S152.1,138.3,152.4,138.4z"/><path fill="#000000" d="M179.7,169c0,0.7,0.2,1,1.1,0.8c0.6-0.1,1-0.5,1-0.8c0-0.4-0.5-0.7-1-0.8C180,168,179.7,168.2,179.7,169z"/><path fill="#000000" d="M150.8,227.3c0,0.7,0.1,1,0.2,0.6c0.1-0.4,0.1-1.1,0-1.4C150.9,226.2,150.8,226.5,150.8,227.3z"/><path fill="#000000" d="M151.6,243.9c0.3,0.4,0.8,0.7,1,0.7c0.2,0,0.1-0.3-0.3-0.7c-0.4-0.4-0.8-0.7-1-0.7C151.2,243.2,151.3,243.6,151.6,243.9z"/><path fill="#000000" d="M153.7,245c-0.2,0.3-0.2,0.7-0.1,0.8c0.4,0.4,0.9-0.2,0.6-0.8C154.1,244.5,154,244.5,153.7,245z"/></g></g></g>
</svg>