<?xml version="1.0" encoding="utf-8"?>
<!-- Svg Vector Icons : http://www.onlinewebfonts.com/icon -->
<!DOCTYPE svg PUBLIC "-//W3C//DTD SVG 1.1//EN" "http://www.w3.org/Graphics/SVG/1.1/DTD/svg11.dtd">
<svg version="1.1" xmlns="http://www.w3.org/2000/svg" xmlns:xlink="http://www.w3.org/1999/xlink" x="0px" y="0px" viewBox="0 0 256 256" enable-background="new 0 0 256 256" xml:space="preserve">
<metadata> Svg Vector Icons : http://www.onlinewebfonts.com/icon </metadata>
<g><g><g><path fill="#000000" d="M187.3,21.4c-0.5,0.6-1.2,2.2-1.5,3.4c-0.3,1.2-0.9,2.6-1.4,3.1c-0.4,0.5-1.2,1.5-1.6,2.2c-0.8,1.3-0.8,1.3,0.4,1.3c1.5,0,1.5,0.5,0,1.8c-0.8,0.8-1.1,1.4-0.9,2.2c0.1,0.6,0,1.5-0.4,2.1c-0.8,1.2-1.2,6.9-0.7,8.9c0.3,1.2,0.3,1.8-0.3,2.4c-0.4,0.5-0.9,1.8-1.2,3.1c-0.6,3-3.6,10-4.7,11c-1.3,1.2-4.8,1.5-6.2,0.5c-0.6-0.4-1.6-0.7-2.1-0.7c-0.7,0-1-0.4-1.2-1.3c-0.4-1.9-1.4-2.7-4.6-3.5c-2-0.5-3.1-1.1-3.9-2.1c-0.6-0.8-1.4-1.4-1.8-1.4c-0.3,0-1.3-0.5-2.1-1.2s-1.8-1.2-2.1-1.2c-0.7,0-4.2-2.4-4.2-2.8c0-0.2-1.2-1.2-2.5-2c-2.6-1.7-3-2.5-1.8-3.5c1.5-1.3,2.8-4,2.8-6.1c0-1.8,0.2-2.4,1.2-3c0.6-0.4,1.6-0.8,2.2-0.8c0.9,0,1.1-0.2,1.2-1.2c0-0.7,0.6-1.8,1.2-2.4c0.9-1,1-1.3,0.5-1.9c-0.4-0.4-1-0.6-1.4-0.6c-0.6,0.1-0.9-0.1-1.2-0.7c-0.4-1.3-1.3-0.7-1.3,0.8c0,0.9-0.3,1.4-0.8,1.5c-0.6,0.1-0.8-0.1-0.8-0.8c0-0.8-0.2-0.9-0.9-0.7c-0.6,0.2-0.9,0.1-0.9-0.4c0-1-0.5-0.9-1.8,0.2c-1.5,1.2-2,1.2-3.6-0.2c-0.9-0.8-1.8-1.1-3.3-1.1c-1.2,0-2.3-0.3-2.8-0.8c-0.6-0.6-1.3-0.7-2.5-0.5c-1.4,0.3-1.8,0.1-3-1.2c-1-1.1-1.6-1.4-2.3-1.2c-0.6,0.2-1,0-1.2-0.4c-0.3-0.8-1.9-0.9-2.4-0.2c-0.2,0.4-0.6,0.3-1-0.1c-0.6-0.5-0.7-0.4-0.5,0.3c0.1,0.7,0.6,0.9,1.8,0.9c1.4,0,1.7,0.2,2.4,1.8c1.1,2.3,0.6,2.8-2.4,2.9c-7.4,0.1-7.8,0.1-8.1,1.2c-0.2,0.7-0.5,0.9-1.2,0.6c-0.7-0.2-1-0.1-1,0.5c0,0.4-0.3,0.8-0.7,1c-1.2,0.4-2.2,2.9-1.6,3.6c0.4,0.5,0.2,0.8-1.2,1.3c-0.9,0.4-1.7,1-1.7,1.3c0,0.3-0.5,1.3-1.2,2.2c-1.5,2-1.4,2.6,0,3c1.1,0.3,1.2,0.5,0.9,2c-0.4,2.1-1,2.9-1.5,2c-0.2-0.4-0.7-0.5-1.2-0.4c-0.4,0.1-1.4,0-2.3-0.4c-2.1-0.9-3.5-0.9-3.5,0c0,0.4-0.2,0.7-0.5,0.7c-0.2,0-0.5,0.4-0.5,0.9c0,1-0.7,1.7-1.1,1.1c-0.1-0.2,0-1.2,0.2-2.2c0.4-1.7,0.3-1.8-1.7-3.6c-2.4-2.1-5.2-4-6-4c-0.3,0-1,0.6-1.4,1.4s-1,1.2-1.2,1c-0.1-0.2-0.8-0.4-1.6-0.5c-1,0-1.3,0.1-1.1,0.7c0.1,0.5,0,1.4-0.3,2.1c-0.4,1.1-0.6,1.2-1.1,0.7c-0.5-0.4-1-0.4-2.1,0.2c-1.7,0.8-1.7,0.8-0.6,2.4l0.8,1.2l-1.3-0.2c-1-0.2-1.4-0.1-1.5,0.6c-0.1,0.5-0.5,0.9-0.9,0.9c-1,0-3.1,2.1-2.8,2.7c0.2,0.3,0.6,0.5,1,0.3c0.9-0.3,0.9,1.8,0,2.5c-0.4,0.3-0.7,1-0.7,1.4c0,1.1-0.4,1.1-1.7-0.1c-0.8-0.8-1.3-0.9-2.4-0.6c-0.7,0.2-1,0.5-0.7,0.6c0.4,0.1,0.5,0.6,0.3,1.4c-0.2,0.9,0,1.4,0.7,2c0.7,0.6,1,1.1,0.8,1.6c-0.2,0.5-0.5,0.6-0.8,0.5c-0.2-0.1-0.5,0.1-0.5,0.6c0,0.5-0.2,1-0.4,1.2c-0.4,0.3-2.4-2.1-3.6-4.1c-0.6-1.2-1.6-1.5-1.6-0.6c0,0.4-0.6,1-1.2,1.5c-2.1,1.4-3.5,6.7-1.8,7.3c1.1,0.4,0.8,1.2-1.1,3c-1,0.9-2,2.4-2.4,3.3c-1.7,4.5-1.8,4.5-6.4,6.7c-3.4,1.6-4.8,2-5.8,1.8c-1.1-0.2-1.6,0-2.5,0.8c-0.7,0.6-2,1.5-3,1.8c-1,0.4-2.6,1.2-3.6,1.8c-1.2,0.8-2.7,1.3-4.8,1.5c-3,0.3-3.1,0.4-6.3,3.4c-1.8,1.7-3.9,3.5-4.7,3.8c-1,0.5-1.8,1.5-2.4,3c-0.5,1.2-1.2,2.4-1.3,2.5c-0.6,0.4-1.5-0.5-1.9-1.8c-0.4-1.3-0.4-1.3-1.1,1c-0.6,2.1-0.6,2.6,0,5c0.6,2.5,0.6,2.9-0.3,5.2c-0.6,1.4-1,3-1,3.5c0,0.6,1.5,3,3.2,5.3c2.5,3.3,3.2,4.7,3.2,5.8c0,1.8-0.4,2.3-1.2,1.6c-0.6-0.4-0.6-0.4-0.6,0.1c0,0.3,0.1,0.9,0,1.2c-0.1,0.9-3.8-1.9-4.8-3.5c-0.7-1.3-1.7-1.9-1.7-1.1c0,0.8,2.6,4,5.1,6.1c2.4,2.1,2.8,2.7,3.7,5.7c0.7,2.4,1.4,3.7,2.5,4.8c0.9,0.8,1.6,1.8,1.6,2.1c0,0.4,0.5,1.2,1.1,1.8c0.8,0.8,1.3,2,1.7,4.3c0.4,2.4,1.2,4.4,3,7.6c2.3,4.2,3.4,7.2,3.7,10.7c0,0.9,0.3,2.1,0.5,2.8c0.4,1.6-1.2,4.1-2.6,4.1c-0.8,0-0.9,0.2-0.6,1.5c0.4,1.9,0.9,2.4,2.4,2.8c0.7,0.1,1.8,0.8,2.6,1.5c1.5,1.3,5.8,2.4,9,2.3c2.2-0.1,5.1-1.3,5.1-2.1c0-0.9,2.3-2.7,3.5-2.7c0.9,0,1.3-0.4,1.8-1.6c0.8-1.9,1.3-2.1,7.8-3.5c4.2-0.9,5.3-0.9,6.5-0.5c1.1,0.4,1.9,0.4,3,0c1-0.3,1.7-0.3,2.4,0c1.2,0.7,1.2,0.7,2.8-0.8c1-0.9,1.5-2,1.7-3.4c0.4-2.4,0.9-3.1,2.2-3.1c0.5,0,2.6-0.9,4.6-2.1c3.1-1.8,4-2.1,6.3-2.1c2.9,0,9.7-2.2,12.1-3.8c2.3-1.6,5.3-2.2,11.1-2.2c5.2,0,5.6,0,6.9,1.2c1,0.8,1.7,1.1,2.4,0.9c0.6-0.2,1.9,0,2.8,0.4c1,0.4,2.2,0.7,2.7,0.6c1.5-0.2,3,0.5,3,1.4c0,0.5,0.4,0.9,1,1.1c0.7,0.2,0.9,0.5,0.6,1.1c-0.6,1.6-0.4,2.1,1.4,3.1c1,0.6,1.9,1.4,2,1.9c0.1,0.5,0.6,1.3,1,1.8c1.8,2,2.7,5.2,1.6,5.4c-0.6,0.1-0.5,0.4,0.6,1.6c1.6,1.8,3.6,2.1,3.2,0.6c-0.2-0.7,0.2-1.8,1.3-3.4c1.7-2.6,3.2-3.9,4.5-3.9c0.5,0,1.2-0.7,1.8-1.7c0.6-1,1.5-2.4,2.1-3.3l1.2-1.5l0.5,1.2c0.4,1,0.3,1.4-0.2,2.1c-0.5,0.6-0.6,0.9-0.1,1.3c0.4,0.4,0.1,0.9-1,2.2c-1.2,1.4-1.4,2-1.4,4.1c0,2.5-0.6,3.5-2.4,4.1c-1.1,0.4-1.1,1.7,0,1.7c0.5,0,1-0.2,1.2-0.4c0.1-0.2,0.7-0.3,1.2-0.2c0.7,0.2,1-0.3,1.8-2.4c0.5-1.5,1.1-2.7,1.4-2.8c0.8-0.3,2.4,2.8,2.4,4.5c0,0.9-0.3,1.9-0.7,2.4c-1.1,1.2-0.4,1.9,1.4,1.5c1.4-0.2,1.7-0.1,3.4,2.1c2.2,2.8,2.7,4.8,1.9,7.1c-0.6,1.6-0.5,1.7,1.1,3.5c0.9,1.1,1.7,2.2,1.7,2.6c0,0.8,1.4,1.6,2.7,1.6c0.5,0,1.3,0.6,1.9,1.2c0.9,1.1,1.3,1.3,3.7,1.4c2.3,0,3,0.3,4.5,1.5c3.1,2.4,3.8,2.4,7.5-0.9c2.7-2.4,3.3-2.8,3.9-2.3c0.9,0.7,0.9,1.3-0.1,2.4c-0.8,0.9-0.8,0.9,0.1,0.6c1.7-0.6,2.3-0.6,2.2,0.4c0,0.5,0.6,1.4,1.4,2.1s1.8,1.6,2.1,2c0.4,0.4,0.8,0.7,1.1,0.6c0.6-0.4,0.4-1.1-0.3-1.1c-1.5,0-0.6-0.8,1.8-1.5c1.5-0.5,3-1.3,3.6-2.1c1.7-2,2.7-2.4,7.2-2.4c3.3,0,4.5-0.2,6-1c1.8-0.9,1.8-1.1,1.8-3.1c0-4.2,2.4-10.2,5.2-13.1c0.7-0.7,1.3-2.1,1.4-3.1c0.1-1,5.3-8.8,6.6-9.9c0.6-0.5,1.6-1,2.1-1.2c0.8-0.2,2.1-2.2,4.8-7.6c0.5-1,1.1-2.7,1.2-3.7s0.7-2.6,1.2-3.5c0.5-0.9,1.2-2.9,1.6-4.4c0.4-1.5,1-3,1.2-3.2c0.2-0.3,0.7-1.5,1.1-2.9c0.6-2.2,0.6-2.6-0.1-5.2c-0.5-1.6-1.1-3.1-1.4-3.5c-0.4-0.4-0.4-0.8-0.1-1.2c0.4-0.6,1.1-5,1.1-7.1c0-2.5-0.6-5.3-1.2-5.8c-0.4-0.3-0.6-0.8-0.6-1.2c0-0.4-0.7-1.5-1.6-2.4c-0.9-1-1.6-2.1-1.6-2.4c0-0.3-0.8-1.2-1.8-1.8c-1.5-1-1.8-1.5-1.8-2.6c0-1.1-0.2-1.4-0.9-1.4c-1.2,0-1.6-2-1.1-4.4c0.5-2.4,0.3-3.2-0.7-2.4c-0.6,0.5-0.9,0.3-2.1-1c-1.3-1.6-1.3-1.6-1.6-0.6c-0.6,2.4-2.5,0.4-2.5-2.6c0-2.5-1.8-7.2-3-7.6c-0.9-0.3-1-2.2-0.2-3c0.4-0.4,0.3-0.7-0.3-1.5c-0.5-0.5-1.1-0.9-1.4-0.9c-0.3,0-1.2-0.6-2.1-1.2c-0.9-0.6-2-1.4-2.6-1.6c-0.7-0.3-1-0.7-0.9-1.4c0-0.7-0.1-1-0.6-1c-0.4,0-1.8-0.5-3.2-1.2c-2.5-1.2-2.5-1.3-2.7-3.4c-0.1-1.2-0.5-2.4-0.8-2.7c-0.8-0.7-0.8-2-0.1-3.3c0.8-1.6,0-4.9-1.7-7c-1.4-1.7-1.6-2.1-1.5-4.7c0-1.6-0.1-3.3-0.4-3.8c-0.3-0.6-0.4-1.1,0-1.4c0.7-0.7-0.1-2.4-2.1-4.4c-0.9-0.9-1.7-2-1.7-2.4c0-0.6-0.3-0.6-1.2-0.4c-0.7,0.2-1.6,0.5-1.8,0.7c-0.9,0.7-1.9,0.1-2.5-1.3c-0.3-0.7-0.5-2.9-0.5-4.9c0-3.8-0.4-5.5-1.9-7.1c-0.6-0.6-0.8-1.3-0.6-1.9c0.2-0.5,0-1.1-0.4-1.5c-0.4-0.3-0.8-1.3-1-2.3c-0.2-0.9-0.8-2.4-1.3-3.4l-1-1.8L187.3,21.4z"/><path fill="#000000" d="M109.3,22.5c-0.8,0.1-1.1,0.5-1.1,1.5c0,1.3,0.1,1.3,1.8,1.3c0.9-0.1,2.3,0,2.9,0.2c0.9,0.3,1.5,0,2.6-1c0.8-0.8,1.5-1.6,1.5-1.9C117,22.2,112.3,22.1,109.3,22.5z"/><path fill="#000000" d="M149.4,38.6c-0.3,0.2-0.6,0.9-0.7,1.5c-0.2,1.6,1.7,1.7,1.8,0C150.8,38.9,150.2,38.2,149.4,38.6z"/><path fill="#000000" d="M244.9,118.2c-0.3,0.3-0.6,1.2-0.8,2c-0.3,1.3-0.3,1.3,0.5,0.7c1.2-1,1.8-2.4,1.3-2.9C245.6,117.7,245.2,117.8,244.9,118.2z"/><path fill="#000000" d="M14.1,124c0.2,0.5,0.7,1.1,0.9,1.2c0.6,0.4,0.6-0.9-0.1-1.5C14.1,122.8,13.6,123,14.1,124z"/><path fill="#000000" d="M148.7,180.7c-3.2,0.6-3,1.3,0.6,1.8c1.9,0.3,2.8,0.2,3.8-0.3c0.7-0.4,1.1-0.8,0.9-1.1C153.5,180.7,150.6,180.4,148.7,180.7z"/><path fill="#000000" d="M184.7,210.2c-0.2,0.1-0.3,0.7-0.3,1.2c0,1,0,1,0.7,0.1c0.4-0.5,0.7-1.1,0.7-1.3C185.7,209.8,185.1,209.7,184.7,210.2z"/><path fill="#000000" d="M205.5,213c0.2,1.5,0.7,1.8,1.3,0.9c0.1-0.3-0.1-0.9-0.6-1.4C205.3,211.7,205.3,211.7,205.5,213z"/><path fill="#000000" d="M187.9,218.5c-0.2,1.8,0,2.6,0.8,4.4c0.7,1.3,1.2,3.1,1.2,4.2c0,2.5,1.5,5.7,2.8,6.1c0.6,0.2,0.9,0.6,0.8,1.3c-0.1,0.9,0.1,1.1,1.9,1.2c1.9,0.2,2.1,0.1,3.3-1.4c1.3-1.8,3.1-2.7,3.1-1.5c0,0.4,0.2,0.6,0.5,0.6c0.3,0,0.5-0.7,0.5-1.6c0-1.7,0.6-3,2.1-4.8c0.7-0.8,0.9-1.8,1-4.4c0.1-4-0.2-4.6-2.3-4c-0.8,0.2-2.1,0.4-2.9,0.4c-0.8,0-1.8,0.3-2.4,0.7c-1,0.6-1.2,0.6-3-0.3c-1.1-0.6-2.5-1.3-3.1-1.8c-0.6-0.4-1.5-0.8-1.8-0.8c-0.4,0-1-0.2-1.4-0.3C188.3,216.3,188.1,216.7,187.9,218.5z"/></g></g></g>
</svg>