<?xml version="1.0" encoding="utf-8"?>
<!-- Svg Vector Icons : http://www.onlinewebfonts.com/icon -->
<!DOCTYPE svg PUBLIC "-//W3C//DTD SVG 1.1//EN" "http://www.w3.org/Graphics/SVG/1.1/DTD/svg11.dtd">
<svg version="1.1" xmlns="http://www.w3.org/2000/svg" xmlns:xlink="http://www.w3.org/1999/xlink" x="0px" y="0px" viewBox="0 0 256 256" enable-background="new 0 0 256 256" xml:space="preserve">
<metadata> Svg Vector Icons : http://www.onlinewebfonts.com/icon </metadata>
<g><g><g><path fill="#000000" d="M153.3,10.4c0,0.4,0.2,0.9,0.5,1c0.3,0.1,0.5-0.1,0.5-0.7c0-0.6-0.2-1-0.5-1C153.6,9.8,153.3,10.1,153.3,10.4z"/><path fill="#000000" d="M153.1,13.1c-0.1,0.2,0,0.6,0.2,0.8c0.2,0.1,0.5,0,0.5-0.4C153.8,12.6,153.5,12.4,153.1,13.1z"/><path fill="#000000" d="M146.3,15.2c-0.5,1.8-0.3,2.1,0.5,0.9c0.5-0.7,0.6-1.3,0.3-1.6C146.8,14.2,146.6,14.5,146.3,15.2z"/><path fill="#000000" d="M172.1,21.6c-0.2,1.8-0.7,2.6-2,3.7c-1,0.9-1.7,1.9-1.7,2.6c0,0.6-0.3,2.2-0.7,3.5c-0.7,2.3-0.7,2.4,0.6,3.4c1,0.8,1.2,1.3,0.9,2.3c-0.2,0.8-0.1,1.3,0.2,1.3c0.3,0,0.1,0.3-0.2,0.8c-1.3,1.3-1,2.2,0.5,1.8c1.1-0.3,1.2-0.2,1,0.5c-0.3,0.9,0.4,1,1.6,0.3c0.6-0.4,0.6-0.6,0-1.3c-0.4-0.5-0.5-0.9-0.2-1.1c0.6-0.5,0.8-1.6,0.1-1.6c-0.3,0-0.4-0.3-0.3-0.7c0.2-0.4,0.1-0.8-0.1-1c-0.7-0.4-0.6-1.2,0.1-1.2c0.5,0,0.6-0.6,0.4-2.6c-0.1-2,0.1-3.6,1.1-6.6l1.3-4l-1.2-1.2l-1.2-1.2L172.1,21.6z"/><path fill="#000000" d="M122.7,22.1c0,0.5-0.3,0.8-0.8,0.8s-0.7,0.3-0.5,0.6c0.1,0.3,0.8,0.6,1.5,0.5c1.3-0.1,1.7,0.5,0.7,1.1c-0.3,0.2,0,0.6,1,1c0.9,0.4,1.7,0.7,1.8,0.7c0.1,0,0.7-0.8,1.4-1.8c1.2-1.7,1.2-1.8,0.5-2.7c-0.6-0.6-1-0.7-1.7-0.3c-0.5,0.2-0.9,0.3-0.9,0.1s-0.2,0-0.5,0.3c-0.3,0.6-0.6,0.6-1.4-0.2C122.8,21.4,122.7,21.4,122.7,22.1z"/><path fill="#000000" d="M114.8,24.6c-0.1,0.1,0,1.3,0.2,2.6c0.7,3.7,0.8,3.8,2.1,2.5c0.7-0.6,1.2-0.9,1.2-0.6c0,0.3,0.3,0.5,0.8,0.4c1.7-0.1,1.1,1.1-0.8,1.8c-2.3,0.9-2.8,2.4-0.6,1.9c0.9-0.2,1.1-0.1,0.6,0.2c-0.3,0.2-0.5,0.7-0.3,1c0.2,0.3-0.1,0.4-0.8,0.2c-0.8-0.2-0.9-0.1-0.6,0.4c1,1.7,2.3,3.4,2.6,3.4c0.2,0,0.8-1.7,1.5-3.7c0.6-2.1,1.3-4,1.6-4.4c0.6-0.7,1.6-0.9,1.1-0.2c-0.1,0.2,0,0.6,0.2,0.8c0.3,0.2,0.4-0.2,0.3-1.1c-0.1-1.7-2.2-4.5-3-4.2c-0.3,0.1-0.7-0.2-0.9-0.7c-0.1-0.5-0.3,0-0.3,1.1l0,1.9l-0.9-1.9c-0.5-1.1-0.9-1.6-0.9-1.1c0,1.1-0.7,1.1-1.5,0.1C115.7,24.3,115.3,24.2,114.8,24.6z"/><path fill="#000000" d="M125,31.7c-1.1,0.6-1.2,2.9-0.1,2.9c0.4,0,0.7,0.2,0.7,0.6c0,0.4,0.2,0.3,0.8-0.1c0.6-0.7,0.6-1,0.1-2.3C125.9,31.4,125.7,31.3,125,31.7z"/><path fill="#000000" d="M171.5,42.8c-1.3,0.5-2,1.6-1.3,1.8c0.3,0.1,0.4,0.5,0.2,0.9c-0.1,0.4,0,0.7,0.3,0.7c0.4,0,0.5,0.7,0.2,2.4c-0.4,3.2,0.2,4.2,2,3.1c1.2-0.7,1.3-0.7,2.7,0.6l1.5,1.4l2.2-1.2l2.2-1.2l-3.1-1.5c-3.5-1.6-5.2-3.6-5.2-6.1C173.2,42.2,173.1,42.1,171.5,42.8z"/><path fill="#000000" d="M194.9,50.2c-1.1,0.2-2.8,0.7-3.7,0.9c-2.5,0.6-2.6,2.3-0.1,3.5c1.6,0.7,1.7,0.9,1,1.7c-0.4,0.4-0.6,1.1-0.5,1.4c0.3,0.8-0.1,0.8-1.5-0.1c-1.1-0.7-1.2-0.7-1.5,0.9c-0.2,1.1-0.8,2.1-1.8,2.7c-0.8,0.6-1.5,1.5-1.5,1.9c0,0.6-0.6,1.3-1.5,1.7c-1.4,0.8-1.5,0.7-1.8-0.2c-0.3-1.3-1.1-1.3-1.1,0c0,0.8-0.1,0.9-0.6,0.5c-0.5-0.4-1.2,0.2-2.7,2.4c-1.8,2.5-2,2.9-1.2,3.3c0.7,0.4,0.7,0.6,0.1,1c-0.4,0.2-0.9,0.5-1.2,0.6c-0.2,0.1-0.2,0.8,0.1,1.7c0.5,1.5,0.4,1.6-0.9,2.3c-1.4,0.7-1.6,0.7-2.9-0.2l-1.4-1.1l1.2-1.5c1.7-2,1-2.6-3.2-3c-2.8-0.2-3-0.2-2,0.4c0.9,0.4,1.8,2,3.3,5.9c1.1,2.9,1.9,5.4,1.8,5.5s-1.1-0.2-2.2-0.6c-1.1-0.4-2.1-0.8-2.1-0.7c0,0.1-0.6,1.1-1.2,2.2c-2,4.1-2.1,4.2-0.4,6.5l1.5,2l-3.4-0.3c-1.9-0.1-3.8-0.4-4.2-0.6c-0.7-0.3-0.9-0.1-0.9,0.9c0,1,0.3,1.4,1.7,1.8c1.5,0.5,1.7,0.8,1.7,2c0,1.4-0.1,1.5-1.5,1.2c-3.3-0.6-5.7-2.1-6.7-4.1c-0.5-1.1-0.9-2.5-0.9-3.3c0.1-1.2-0.1-1.4-1.8-1.9c-1.4-0.4-1.8-0.7-1.3-1c0.5-0.3,0.2-0.7-1.2-1.7c-2.3-1.7-1.8-1.8,6.4-0.8c3.5,0.4,6.5,0.6,6.6,0.5c0.3-0.1,2.9-5.3,2.9-5.7c0-0.1-1.2-1.1-2.6-2.1c-4.4-3.3-13.9-6.1-14.6-4.4c-0.2,0.5-0.3,0.5-0.3,0c0-0.3-0.6-0.6-1.2-0.6c-0.6,0-1.3-0.3-1.5-0.7c-0.1-0.5,0-0.7,0.6-0.7c0.7,0,0.7-0.1,0.1-0.5c-0.5-0.3-0.9-0.2-1.5,0.5c-0.6,0.8-1,0.9-1.8,0.5c-0.7-0.4-1.1-0.4-1.6,0c-0.4,0.4-0.8,0.3-1.6-0.5l-1.1-1.1h1.4c1,0,1.7-0.3,2.1-1c0.6-0.9,0.4-1.1-1.2-1.8c-1.6-0.7-1.8-0.7-2.8,0.1c-0.9,0.9-1,0.9-0.4-0.2c0.4-0.8,0.4-1.2,0-1.4c-0.7-0.4-1.3,0.2-1.5,1.7c-0.2,1.4-1.4,2-1.4,0.7c0-0.7-0.1-0.6-0.7,0.3l-0.7,1.2l-0.2-1.5c-0.2-2.5-1.6-2.1-2.3,0.7c-0.7,2.6-0.9,2.8-2.3,1.7c-1.4-1-1.8-0.9-1.5,0.5c0.2,0.9,0.1,1.1-0.4,0.9c-0.4-0.1-1.2,0.4-1.9,1.4c-1.1,1.5-1.2,1.5-1,0.4c0.2-1,0.1-1.1-0.2-0.5c-0.4,0.5-0.5,0.6-0.5,0.1c0-0.3-0.2-0.5-0.5-0.3c-0.3,0.2-0.4,0.8-0.2,1.3c0.2,0.8,0.1,0.9-0.7,0.4c-0.9-0.5-1-0.3-1.5,1.4c-0.3,1.2-0.8,1.9-1.3,1.9c-0.4,0-0.6,0.2-0.4,0.5c0.1,0.2,0,0.5-0.4,0.5c-0.5,0-0.8,0.4-0.8,1.3c0,1.2-0.1,1.2-0.5,0.5c-0.2-0.5-0.8-0.7-1.2-0.5c-0.6,0.2-0.6,0.3-0.1,0.7c0.5,0.3,0.4,0.4-0.3,0.4c-0.9,0-0.9,0,0,1c0.8,0.9,0.8,0.9-0.4,1.3c-1.2,0.3-1.8,1.2-0.7,1.2c0.2,0,0.3,0.2,0.2,0.5c-0.1,0.2-0.9,0.5-1.6,0.5c-0.7,0-1.1,0.1-1,0.3c0.2,0.2-0.1,1-0.7,1.7c-0.7,1-0.8,1.4-0.3,1.5c0.3,0,0.2,0.2-0.3,0.4c-0.5,0.2-1.5,1.3-2.1,2.4c-1.1,1.8-1.1,2-0.2,2c0.6,0,0.4,0.2-0.6,0.7c-0.8,0.4-1.2,0.7-1,0.7c0.3,0,0.1,0.2-0.3,0.5c-0.5,0.3-0.7,0.9-0.5,1.5c0.2,0.7,0,1-0.5,1c-0.4,0-0.8-0.2-0.8-0.6c0-0.3-0.9,0.3-1.9,1.3c-1.6,1.6-1.8,2-1.2,2.3c0.5,0.2,1.2,0,2.2-0.6l1.4-1l-0.5,1.5c-0.6,1.8-2.6,2.5-3.5,1.2c-0.8-1.1-2.7-0.6-2.7,0.8c0,1.7-1,2.2-3.6,2c-2.2-0.2-2.4-0.1-1.8,0.5c1,1.3,0.1,1.9-1.9,1.6c-1.2-0.2-1.9-0.1-1.9,0.2c0,0.2,0.4,0.5,0.9,0.5c0.6,0,0.6,0.1-0.2,0.4c-1.2,0.5-1.5,1.3-0.6,1.6c0.3,0.1,0.2,0.7-0.2,1.5c-0.3,0.8-0.5,1.4-0.3,1.4s0,0.2-0.4,0.5c-0.6,0.4-0.6,0.6-0.1,0.9c0.5,0.3,0.5,0.5-0.1,1.1c-0.8,0.6-0.6,1.7,0.2,1.2c0.2-0.2,0.3,0.1,0.1,0.5c-0.2,0.7-0.1,0.8,0.5,0.5c2.3-0.9,2.3-0.8,0.2,0.7c-2.4,1.8-2.8,2.7-0.8,2.5c0.9-0.1,1,0,0.5,0.5c-0.8,0.8-0.7,1.4,0.2,1.4c0.4,0,0.6,0.2,0.4,0.5c-0.2,0.3-0.8,0.5-1.4,0.4c-1.6-0.2-1.5,1.1,0.2,3.1c1.2,1.5,1.8,1.8,3.1,1.8c1.4,0,2-0.4,3.5-2.2c1.5-1.8,2.1-2.2,3.2-2c1.2,0.1,1.4,0,2-1.8l0.7-2l0,3.8c0,3,0.2,3.8,0.8,4.1c0.4,0.1,0.6,0.6,0.5,1c-0.1,0.4,0,0.5,0.2,0.4c0.3-0.2,0.3,0.1,0.1,0.9c-0.2,0.8,0.1,2.2,0.8,4c0.9,2.2,1,2.9,0.5,3.6c-0.3,0.5-0.6,1.6-0.6,2.5c0,1.3-0.1,1.4-0.4,0.7c-0.3-0.9-0.4-0.9-0.7,0c-0.3,0.8-0.4,0.8-0.9,0.1c-0.4-0.5-0.9-0.6-1.7-0.3c-1.1,0.4-1.1,0.5-0.4,2.4c0.4,1.1,0.9,2.3,1.2,2.8c0.4,0.7,0.5,0.7,0.5-0.2c0-1.3,2.3-3.5,2.8-2.8c0.2,0.3,1.1,0.7,2.1,0.9c1.7,0.3,1.8,0.2,2.6-1.7c0.9-1.9,1-2,2.7-1.7l1.8,0.3l1.2-3.3c0.9-2.3,1.2-4.1,1.1-6.5c-0.1-3.2,0-3.3,1.4-3.5c0.8-0.2,1.4-0.5,1.4-0.8c0-0.3,0.4-0.4,0.9-0.2c0.5,0.2,1.2,0,1.8-0.6c0.8-0.8,0.8-0.9,0-1.3c-0.8-0.3-0.8-0.4,0.3-1.3l1.2-1l-1-1.8c-0.6-1-1.6-2.1-2.3-2.4c-1.5-0.7-1.5-0.8-0.5-6.9c0.4-2.5,0.7-4.8,0.7-5.1c0-0.2,0.3-0.1,0.7,0.2c0.6,0.5,1.2,0.2,3.2-1.5c1.4-1.1,3.1-3,3.9-4.1c1.2-1.8,1.4-2.2,1-3.9c-0.6-2.4-0.6-2.7,0-2.4c0.3,0.1,0.5-0.2,0.5-0.9c0-0.9,0.2-1.2,0.7-1c0.4,0.2,0.8,0,1-0.5c0.2-0.5,0.9-0.8,2.1-0.8c1.7,0,2,0.2,3.1,2l1.2,2.1l-3.2,4.1c-1.8,2.3-3.8,4.9-4.6,5.8l-1.3,1.7l0.7,2.9c0.5,1.9,0.7,3.9,0.5,5.6c-0.2,2.6-0.2,2.7,1.1,3.5c0.8,0.4,1.8,0.7,2.1,0.5c0.5-0.2,0.6,0,0.4,1.1c-0.2,1-0.1,1.3,0.4,1.1c0.4-0.2,3.6-1.5,7.1-3c5.7-2.4,6.4-2.6,6.4-1.8c0,0.7,0.6,1.1,2.3,1.7l2.3,0.7l-1.4,0.5c-0.7,0.3-1.9,0.7-2.6,0.8c-0.7,0.2-1.4,0.8-1.5,1.3c-0.2,0.8-0.5,0.9-3,0.7c-2.2-0.2-3.3,0-5.8,1c-1.9,0.8-3,1.5-2.8,1.9c0.1,0.3,0.4,1.4,0.6,2.3c0.2,1.4,0.5,1.8,1.5,1.8c1.1,0,1.2,0.2,1.2,2.4c0,2.2-0.8,3.9-1.9,3.9c-0.2,0-1.1-0.8-1.9-1.7c-1.3-1.5-1.6-1.7-2.6-1.2c-0.7,0.3-1.6,1.5-2.3,3.2c-1,2.5-1,3-0.5,6.3c0.7,4.8,0.8,4.7-1,4.5c-1.4-0.1-1.6,0-1.6,1c0,0.6-0.6,1.5-1.2,1.9c-1.2,0.8-1.2,0.8-0.5,0c0.8-1,0.4-1.1-1-0.3c-0.8,0.4-1.2,0.3-2.3-0.8l-1.4-1.4l-4.7,1.7c-3.7,1.3-4.8,1.9-5.2,2.8l-0.4,1.2l-2.3-2.2l-2.3-2.2l-2.4,0.6c-3.4,0.9-3.8,0.9-3.5-0.3c0.2-0.8,0-1-1.2-1c-1.9,0-3.1-2.2-2.5-5c0.3-1.7,0.8-2.4,2.7-3.7l2.3-1.7l-1.1-0.8c-1.1-0.8-1.1-0.8-0.1-2.8c0.5-1.1,0.8-2.1,0.6-2.2c-0.3-0.3-4.2,1.1-5.1,1.8c-0.3,0.3-0.6,0.9-0.6,1.4c0,0.6,0.2,0.6,0.9-0.2c0.6-0.8,1.1-1,1.8-0.7c0.8,0.3,0.8,0.4,0.1,0.4c-0.5,0-0.9,0.2-0.9,0.5s-0.5,0.5-1.1,0.7c-0.9,0.2-1.3,0.9-2.1,4.5l-1,4.2l1,1c0.9,0.9,0.9,1,0.2,1.6c-0.7,0.5-0.6,0.8,0.7,2.6c1.6,2.1,1.5,2.7-0.1,1.2c-0.9-0.8-1-0.8-1.8,0.3c-0.8,1.1-0.9,1.1-1.2,0.3c-0.2-0.5-0.9-0.8-1.8-0.8c-1.1,0-1.3,0.2-1.1,0.8s0.1,0.7-0.9,0.4c-4.2-1.2-5.6-0.7-4.8,1.5c0.3,1,0.3,1.4-0.1,1.7c-1,0.6-1.3,0.5-2-1.2l-0.6-1.6l-1.3,1.9c-1.4,2-1.7,3.2-0.8,3.2c0.3,0,0.5,0.2,0.5,0.5c0,0.2-0.7,0.5-1.6,0.5c-1.5,0-1.5,0.1-0.8,0.7c0.8,0.5,0.3,0.7-3.1,1c-4.1,0.3-4.8,0.7-4.8,2.5c0,0.8-0.7,1.3-3.2,2.3c-1.8,0.7-3.4,1.3-3.6,1.3c-0.2,0-1.4-0.8-2.6-1.7c-1.2-0.9-2.3-1.7-2.5-1.7s-0.3,1.2-0.3,2.7c0,2.4-0.1,2.7-1.1,2.7c-2.1,0-3.2-0.6-3.5-1.8c-0.3-1.1-0.6-1.2-3-1.2c-2.7,0-3.2,0.3-2.1,1.4c0.4,0.4,0.4,0.6-0.2,0.6c-0.5,0-0.8,0.4-0.8,1c0,0.6,0.9,1.6,2.8,2.7c1.5,1,2.9,1.8,3,1.9c0.1,0.1,0.4,1.5,0.6,3c0.3,1.9,0.7,3,1.4,3.5c0.7,0.5,0.9,0.8,0.5,1.5c-0.2,0.4-0.5,1.5-0.7,2.2c-0.2,1-3.5,8.6-4.5,10.4c0,0-4.1-1.4-9-3.4c-6.1-2.3-9.3-3.8-10-4.7c-1-1.1-1.2-1.2-3.9-0.9c-1.6,0.2-3,0.4-3.2,0.5c-0.1,0.1,0,1.2,0.3,2.4c0.7,2.1,0.6,2.2-1.5,7.1c-1.2,2.8-3.1,5.9-4.1,7.1c-1.9,2.2-2.3,3-1.4,3c0.4,0,0.3,0.3-0.1,0.8c-0.6,0.7-0.6,0.9,0.1,1.3c0.6,0.4,0.5,0.8-0.7,3.4c-0.7,1.6-1.3,3-1.2,3.1c0.1,0.1,1.8,0.6,3.8,1.1l3.6,0.9l1.5,3.8c1.4,3.7,1.5,3.7,2.9,3.5c4.7-0.9,4.9-0.9,8.7,0.7l3.8,1.5l1.9-1.6c1.5-1.2,2.2-1.5,3.3-1.3c1.2,0.2,1.5,0.1,2-1.2c0.4-0.9,1.2-1.8,2.2-2.1c1.7-0.7,1.9-1.1,1.1-2c-2-2,3.7-8.2,8.8-9.3c6.9-1.6,6.3-1.2,6.3-4.1c0-2.9,0.8-4,3.3-4.5c1.2-0.2,2.2,0.1,5,1.8l3.5,2l5.2-2.6l5.2-2.6l2.5,1.7c1.4,0.9,2.6,2,2.7,2.4c0.1,0.4,0.7,2.3,1.2,4.2l1,3.4l8.2,6.6l8.2,6.5l1,3l1,3l-1.2,1.8c-1.1,1.6-1.2,2.7-0.1,2.7c0.2,0,0.9-1,1.5-2.2c0.6-1.2,1.3-2.2,1.6-2.2c0.3,0,0.8-0.2,1.2-0.4c0.5-0.3,0.5-0.7-0.4-1.9c-1.2-1.8-1.3-2.1-0.3-4c0.6-1.3,0.8-1.3,2.5-1c1,0.2,2.1,0.9,2.5,1.4c0.7,1.1,1.5,1.4,1.5,0.4c0-0.3-2.1-2.1-4.7-4c-3.9-2.9-4.6-3.5-4.3-4.5c0.2-0.9,0-1.2-1.6-1.6c-1-0.3-2.1-0.5-2.5-0.5s-1.5-1.8-2.5-4c-1.4-3.1-2.4-4.5-4.1-5.9c-2.2-1.8-2.2-1.8-2.2-4.9V194l2-0.5c2.7-0.7,3.2-0.4,3.5,1.9c0.3,2.2,0.7,2.4,2,1c0.9-1,0.9-1,3.2,3.6c2.1,4.3,2.5,4.7,4.2,5.1c1,0.3,2.6,1.3,3.5,2.2c0.9,0.9,2.3,1.9,3.2,2.2c0.8,0.3,2.2,1.3,3.2,2.2l1.6,1.7l-0.6,3.6c-0.7,4.1-0.9,3.5,2.9,7.9c1.2,1.4,2.5,2.6,2.9,2.6c0.5,0,0.6,0.1,0.2,0.6c-1,1.2,0.6,2.8,2.8,2.8c1,0,2.9,0.1,4.1,0.3c3.5,0.5,1.6,1.2-2.2,0.8c-3.9-0.3-4.2,0-2.7,3.6c0.9,2.2,1.2,2.4,2,2c0.6-0.4,1-0.4,1.1,0c0.1,0.3,0.5,0.9,0.9,1.4c0.6,0.8,0.7,0.9,0.7,0c0-1,0.5-1.1,1.4-0.2c0.5,0.5,0.6,0.4,0.3-0.6c-1-3.7-1-3.8,0.5-3.5l1.4,0.2l-1-1.1c-0.8-0.9-0.8-1.2-0.2-1.5c1-0.7,1.5-0.6,2.5,0.3c0.8,0.7,0.9,0.7,0.9-0.2c0-0.8-0.7-1.4-3-2.6c-2.7-1.4-2.9-1.6-2.2-2.1c0.4-0.3,0.8-1,0.8-1.4c0-0.5,0.2-0.7,0.5-0.5c0.7,0.4,0.6,0-0.7-2.7c-0.7-1.3-1.2-2.6-1.2-2.9c0-0.9,1.5-0.5,3.2,0.8c1.3,1,1.6,1.1,1.4,0.4c-0.3-0.7-0.1-0.8,0.8-0.6c1.1,0.3,1.1,0.2-0.2-1.1l-1.3-1.4l2.8-0.8c2.4-0.7,3.3-0.7,5.9-0.2c2.7,0.5,3.1,0.7,2.8,1.6c-0.1,0.6,0.3,0.3,1.6-1.1c1.7-1.8,2.1-2,4.1-2c1.5,0,2.2-0.2,2.2-0.6c0-0.3-1.3-2-2.8-3.6l-2.8-3.1l1.7-2.5c1.5-2.2,1.8-3,1.9-6.1c0.1-2,0.4-3.4,0.5-3.1c0.2,0.3,0.7,0.3,1.4-0.2c0.9-0.6,1-1,0.7-3c-0.1-1.3-0.1-2.1,0.1-1.9c0.5,0.4,2.5-2,2.9-3.6c0.4-1.8,3.7-3.5,5-2.8c1,0.6,1,0.6-0.1,1.5c-1,0.9-1,0.9,2.2,0.7c2.8-0.2,3.3-0.2,3.5,0.5c0.2,0.6-0.2,1.3-1.3,2.2c-0.9,0.8-1.3,1.3-0.8,1.1c0.6-0.2,1,0.2,1.5,1.8c1.1,3.2,2.3,3.1,6.9-0.6c2-1.7,3.7-3.1,3.7-3.2c0-0.1-0.6,0-1.3,0.3c-2.1,0.8-3.8,0.6-5.1-0.7l-1.1-1.2l1.1-1.6c0.5-0.9,1-1.3,1-0.9c0,0.4,0.5,0.1,1.3-0.8c1-1.3,10-7,11-7c0.1,0,0,0.8-0.2,1.7c-0.4,1.3-0.9,1.8-2,2l-1.5,0.3l1.1,0.9c1.1,0.8,1.1,0.9,0.3,3.2c-0.5,1.7-1.2,2.7-2.3,3.3c-0.8,0.5-1.4,0.9-1.3,1c0.1,0.1,3.3,1.3,7.1,2.6l7,2.5l10.7,0c5.9,0,13.7,0,17.2-0.1l6.5,0l-3.8-2.9c-3.3-2.5-3.9-3.1-4.4-5.1c-0.4-1.4-0.9-2.1-1.2-1.9c-0.3,0.1-1.5-0.7-2.6-1.8l-2-2.1l0.3-3c0.3-3,0.3-3.1,2.4-4.1c2-1,2.1-1.1,2.1-3c0-1.7,0.3-2.5,2.3-4.8c1.3-1.5,2.6-2.7,2.9-2.7c1,0,0.7-1.8-0.5-2.9c-0.7-0.6-1.4-2.1-1.8-3.7c-0.5-2.3-1-3-3.2-4.9c-2.4-2-3.7-4.4-3.7-6.7c0-0.4,2-2.3,4.4-4.2c3.3-2.5,5.2-3.6,7.2-4.2c1.5-0.4,3.1-1,3.5-1.2c0.5-0.3,1.4-0.5,2-0.5c0.6,0,1.4-0.3,1.8-0.7c0.7-0.9,1.9-1,1.9-0.2c0,0.3,0.5,0.4,1.4,0.2c0.7-0.2,1.6-0.3,1.9-0.4c0.3,0,0.6-0.5,0.6-1c0-0.5,0.3-0.9,0.9-0.9c0.5,0,1.4-0.5,2-1.2c1.1-1.1,1.1-1.2,0.3-2.7c-0.5-1.1-1-1.4-1.4-1.1c-0.5,0.4-1.8,0.4-4.1,0.2c-0.3,0-0.6-0.4-0.6-0.8c0-0.4-1-0.9-2.7-1.3c-2.2-0.5-2.9-0.9-3.6-2.1c-0.5-0.9-1-2.4-1-3.5c0-2.1-1-3.4-2.1-2.9c-0.4,0.1-1.2,1.2-1.8,2.3c-1.5,2.8-2.6,3.1-5.9,1.4c-1.7-0.9-2.8-1.8-2.8-2.2c0-0.4,0.9-1.7,1.9-2.9c2.8-3,2.7-6-0.2-6c-2.8,0-3.5-0.9-3.5-5c0-2.9-0.4-4.5-2.1-8.9c-1.2-3-2.7-6.4-3.5-7.7c-0.8-1.3-1.4-2.7-1.4-3.2c0-0.5-1.8-3.3-3.9-6.3l-3.9-5.4l0.7-2.8c1.3-5.2,2.1-11,1.9-13.6c-0.2-2.4-0.4-2.7-2.8-4.5C199.9,50,197.8,49.4,194.9,50.2z M152.6,113c1.4,1.1,2.4,2.1,2.3,2.4c0,0.2-0.7,1.3-1.5,2.3l-1.4,1.9l-1.9-2.3c-3.3-4-3.2-3.7-1.9-5.3C149.3,110.3,149.2,110.3,152.6,113z"/><path fill="#000000" d="M185,52.2c0.1,0.3,0.9,0.7,1.8,0.8c1.2,0.1,1.5,0,1.3-0.6C187.7,51.4,184.7,51.2,185,52.2z"/><path fill="#000000" d="M173,64c-0.4,1,0.1,2.2,1,2.2c1,0,1.6-1.9,0.7-2.5C173.7,63,173.2,63.1,173,64z"/><path fill="#000000" d="M42.5,64.8c0,1-0.1,1.1-0.7,0.2c-0.6-0.8-0.7-0.8-1,0c-0.2,0.6-0.4,0.7-1,0.2c-1.3-1.1-0.8,0.5,0.6,2c1.1,1.2,1.2,1.4,0.4,1.4c-0.6,0-0.8,0.2-0.6,0.7c0.2,0.6-0.1,0.5-1.7-0.2l-1.9-1l1.3,2.5c1.4,2.7,1.2,3.3-1,3.4c-0.9,0-0.8,0.1,0.2,0.7c0.7,0.3,1.8,1.8,2.4,3.2c1.3,2.7,1.3,2.7,6.8,3.1c4.1,0.3,7.6-0.7,7.1-2c-0.1-0.5,0-0.6,0.5-0.4c0.6,0.2,0.7-0.2,0.7-2.3c0-1.4-0.1-3.4-0.3-4.4c-0.3-1.7-0.4-1.8-1.2-1.1c-0.7,0.7-0.9,0.6-2-0.2l-1.3-1l-0.8,1.1l-0.8,1.1l0.3-1.4c0.2-1.2,0.2-1.3-0.7-0.9c-1.3,0.7-1.4,0.7-1.7-0.7l-0.3-1.3l-1.1,1c-2,1.8-2.4,1.8-1.6,0.1c0.5-1,0.7-2,0.5-3C43.3,63.9,42.5,63.3,42.5,64.8z"/><path fill="#000000" d="M117.8,74.5c-0.6,1.1-0.6,1.1,0.5,0.2c1.1-1,1.3-1.3,0.5-1.3C118.6,73.4,118.1,73.9,117.8,74.5z"/><path fill="#000000" d="M113.2,76.9c-0.2,0.3-0.2,0.6-0.1,0.7c0.1,0.1,0.3-0.1,0.5-0.5C113.9,76.3,113.6,76.1,113.2,76.9z"/><path fill="#000000" d="M114.5,76.7c0,0.3-0.2,1-0.3,1.5c-0.2,0.7-0.2,0.7,0.2,0.3c0.3-0.3,0.5-1,0.4-1.5C114.6,76.5,114.5,76.4,114.5,76.7z"/><path fill="#000000" d="M53.1,117.7c-1,0.8-1,0.9-0.3,1c0.5,0,1.1-0.4,1.4-1C54.8,116.5,54.5,116.5,53.1,117.7z"/><path fill="#000000" d="M57.7,118.7c-0.6,1.4-1.1,1.8-1.6,1.7c-0.9-0.3-1.6,0.5-1.6,2.1c0,0.7-0.3,1.3-1,1.4c-0.5,0.1-1,0.4-1,0.6c0,0.2,0.4,0.6,1,0.7c1.3,0.4,1.2,0.8-0.1,2.5c-2.5,3.1-2.6,3.3-0.8,1.9c1.5-1.2,1.8-1.2,2.1-0.5c0.4,1.1,0.4,1.2-0.3,0.9c-0.4-0.1-1,0.6-1.7,2c-1.1,2.3-1.3,3.2-0.7,3.1c0.2,0,1.4,0.1,2.8,0.3l2.4,0.4l-1.3,1.1c-1,0.8-1.3,1.3-1.1,2.1c0.2,0.6,0.6,1.1,1,1.1c0.5,0,0.4,0.4-0.3,1.6c-0.7,1.2-0.8,1.7-0.3,2.2c0.5,0.6,0.4,0.7-0.4,0.4c-2.9-0.8-3.7-0.8-4.8-0.1l-1,0.7h1.1c1,0,1.1,0.2,0.8,1.1c-0.1,0.6-0.3,1.1-0.4,1.2c0,0-1.1,0.4-2.4,0.9l-2.4,0.9l2.4,2c2.1,1.8,2.5,2,3.8,1.7c2.1-0.6,2.1-0.6,0.5,0.7c-1.4,1.1-1.6,1.1-3.2,0.4c-1.8-0.7-1.8-0.6-4.8,1.3l-3,1.9l2.4,0.5c3.3,0.7,3.9,0.7,4.6-0.3c0.5-0.7,1-0.7,5.4,0.5c4.8,1.3,7.2,1.6,9.3,1c1.4-0.4,1.4-1-0.2-1.8c-0.8-0.4-1-0.7-0.6-0.8c0.4,0,1.6-0.8,2.6-1.9c1.5-1.5,1.8-2.1,1.5-3.1c-0.2-1-0.7-1.4-2-1.6c-2-0.4-2.3-0.7-1.6-2.4c0.4-1.2,0.3-1.5-0.3-2c-0.8-0.6-0.8-0.6,0.2-0.6c1.4,0,1.4-1.1-0.1-3.1c-0.9-1.2-1.2-2.5-1.5-5.3c-0.4-3.8-0.4-3.9-2.1-4.9c-1.4-0.8-1.6-1.1-0.9-1.2c0.4-0.1,0.7-0.4,0.6-0.6c-0.2-0.2,0.2-0.4,0.9-0.4c0.8,0,1.8-0.7,2.9-2c0.9-1.1,1.6-2.2,1.5-2.4c-0.1-0.2-1.4-0.6-2.9-1c-1.5-0.3-2.8-0.8-2.9-1c-0.1-0.2,0.8-1,1.9-1.9c1.2-0.8,2.3-1.8,2.4-1.9c0.1-0.2-0.7-0.8-1.9-1.2l-2.1-0.7L57.7,118.7z"/><path fill="#000000" d="M52.7,121.5c0,0.3,0.2,0.6,0.5,0.8c0.3,0.1,0.3,0,0.2-0.4C53,121,52.7,120.8,52.7,121.5z"/><path fill="#000000" d="M51.5,126.4c-0.1,0.2,0,0.5,0.2,0.5c0.3,0,0.5-0.2,0.5-0.5c0-0.3-0.1-0.5-0.2-0.5C51.9,125.9,51.6,126.1,51.5,126.4z"/><path fill="#000000" d="M129,127.2c0,0.8,0.4,0.9,1.4,0.3c0.5-0.3,0.5-0.5-0.1-0.7C129.1,126.3,129,126.3,129,127.2z"/><path fill="#000000" d="M128,129.9c0,1.6,0.8,1.8,1.9,0.6l1.1-1.2h-1.5C128.7,129.3,128,129.6,128,129.9z"/><path fill="#000000" d="M43.2,130.4c-1.5,0.8-1.5,0.9-0.7,1.4c0.6,0.4,0.6,0.6-0.1,1.3c-0.9,0.9-0.9,0.9-4.4-0.6c-0.8-0.3-0.8-0.2-0.5,0.9c0.2,1.1,0.1,1.4-0.7,1.6c-1.4,0.3-1.3,0.9,0.2,1.9c1.6,1,1.6,1.4-0.2,2.1c-1.7,0.7-1.8,1.3-0.6,1.6c0.4,0.1-0.1,0.2-1.4,0.3c-1.6,0-2,0.2-1.5,0.5c0.6,0.3,0.5,0.5-0.5,0.9l-1.2,0.4l1.1,0.3c0.8,0.3,1,0.5,0.6,1.2c-0.4,0.8,0,0.9,4.7,1.2c2.8,0.2,5.3,0.1,5.5,0s1-2.2,1.7-4.4c1.2-3.7,1.5-4,3.1-4.6c1.6-0.5,1.7-0.7,1.4-2c-0.1-0.8-0.3-1.8-0.3-2.1c0-0.4-0.6-0.7-1.6-0.7c-0.9,0-1.4-0.1-1-0.2c0.3-0.1,0.4-0.6,0.3-1c-0.2-0.6-0.4-0.6-1.1,0c-0.8,0.7-0.9,0.7-1.3,0C44.3,130.1,44,130,43.2,130.4z"/><path fill="#000000" d="M118.6,133.4c-0.5,0.4-0.8,1.1-0.7,1.6c0.1,0.8,0.3,0.7,1-0.7C119.9,132.6,119.9,132.5,118.6,133.4z"/><path fill="#000000" d="M94.2,142.7c-0.3,0.9,0.1,1.7,1.1,1.7c0.4,0,0.7-0.5,0.7-1.2C96,141.9,94.6,141.5,94.2,142.7z"/><path fill="#000000" d="M103.5,149.3c0.1,0.2,0.4,0.5,0.5,0.5c0.1,0,0.2-0.2,0.2-0.5c0-0.3-0.2-0.5-0.5-0.5C103.4,148.8,103.3,149,103.5,149.3z"/><path fill="#000000" d="M81.7,206.3c-1.3,1.1-1.4,1.3-1.1,3.5l0.4,2.3l1.2-1.2c1-1,1.2-1.6,1.1-3.5l-0.1-2.3L81.7,206.3z"/><path fill="#000000" d="M79.7,213.9c-1.8,0.3-2.1,1.4-2.1,6.4l0,3.7l2.4-0.5l2.4-0.4l0.6-2.9c0.5-2.4,0.5-3.2,0-4.7C82,213.6,81.8,213.4,79.7,213.9z"/><path fill="#000000" d="M55.7,215.7c-0.5,0.2-0.5,0.4,0.2,1.2c0.6,0.7,1,0.8,1.7,0.4c1.3-0.7,1.2-1.9-0.1-1.8C56.8,215.4,56,215.6,55.7,215.7z"/><path fill="#000000" d="M134.8,227.9c0,0.3,5,3.5,5.2,3.3c0,0,0-0.5-0.1-1.1C139.5,228.7,134.8,226.7,134.8,227.9z"/><path fill="#000000" d="M98,230.8c-4.8,0.2-5,0.2-4.9,1.2c0.1,0.7,1.4,1.7,4.5,3.4c2.4,1.3,4.5,2.4,4.6,2.4c0.2,0,1.2-2.3,2.7-6.5c0.2-0.6,0-0.8-0.8-0.7C103.5,230.6,100.8,230.8,98,230.8z"/><path fill="#000000" d="M124.9,230.9c-0.1,0.2,0,0.5,0.4,0.7c0.4,0.2,0.6,0,0.4-0.4C125.5,230.4,125.3,230.3,124.9,230.9z"/><path fill="#000000" d="M100.4,244.2c0.3,0.9,1.4,1,1.4,0.2c0-0.4-0.3-0.8-0.8-0.8S100.3,243.8,100.4,244.2z"/><path fill="#000000" d="M137.9,244.4c-0.4,1-0.2,1.1,2.8,1.7c3.1,0.5,7.8,0,8.1-0.9c0.1-0.5-0.1-0.5-1-0.1c-0.9,0.4-2.1,0.3-5.4-0.4C138.8,243.8,138.1,243.8,137.9,244.4z"/></g></g></g>
</svg>