<?xml version="1.0" encoding="utf-8"?>
<!-- Svg Vector Icons : http://www.onlinewebfonts.com/icon -->
<!DOCTYPE svg PUBLIC "-//W3C//DTD SVG 1.1//EN" "http://www.w3.org/Graphics/SVG/1.1/DTD/svg11.dtd">
<svg version="1.1" xmlns="http://www.w3.org/2000/svg" xmlns:xlink="http://www.w3.org/1999/xlink" x="0px" y="0px" viewBox="0 0 256 256" enable-background="new 0 0 256 256" xml:space="preserve">
<metadata> Svg Vector Icons : http://www.onlinewebfonts.com/icon </metadata>
<g><g><g><path fill="#000000" d="M89.3,68c-0.5,0.5-1,0.9-1.2,0.9c-0.2,0-0.5,0.1-0.7,0.1c-0.2,0,0,0.3,0.3,0.6c0.6,0.4,0.5,0.5-0.3,0.3c-0.6-0.1-1.1,0-1.1,0.1s-0.4,0.3-0.9,0.1c-0.6-0.1-1.3,0.1-1.8,0.5c-0.7,0.7-1.2,0.7-2.8,0.3c-2.1-0.6-8.8-0.9-8.8-0.4c0,0.1-0.5,0.2-1.2,0c-1.4-0.2-3,0.3-2.2,0.7c0.3,0.2-0.9,0.4-2.7,0.4c-1.8,0-3.5,0.3-3.8,0.6c-0.4,0.4-0.3,0.5,0.3,0.5c0.4,0,0.8,0.2,0.8,0.5c0,0.3,0.5,0.2,1.2-0.1c0.8-0.4,1.3-0.4,1.5,0c0.5,0.7,1.6,1,2.7,0.6c0.6-0.2,1.4-0.2,1.8,0c0.6,0.2,0.6,0.4-0.6,0.6c-0.7,0.1-1.3,0.5-1.2,0.8c0.1,0.6,0.2,0.6-1.7,0.1c-1.8-0.5-1.9,0-0.3,0.9c1.6,0.8,1.5,1.2-0.2,1c-1.7-0.2-1.8,0.4-0.1,1.4c0.9,0.6,1,0.8,0.3,0.6c-0.5-0.1-1.3-0.4-1.8-0.6c-0.6-0.2-0.8-0.2-0.6,0.1c0.2,0.3,0,0.7-0.5,0.9c-0.5,0.2,0.3,0.5,2.5,0.6c3.9,0.3,5,0.1,3.2-0.7L68,78.9l1.3,0c0.7,0,1.2-0.3,1.2-0.6c0-0.2,0.2-0.4,0.4-0.2c0.2,0.1,0.7-0.1,1.2-0.6c0.7-0.8,0.7-0.9,0.1-0.9c-0.5,0-0.8-0.2-0.8-0.5c0-0.3,0.4-0.4,0.9-0.3c0.5,0.1,0.9,0,0.9-0.2s0.5-0.4,1.2-0.4c0.6,0,1.2-0.2,1.2-0.4s0.7-0.6,1.5-0.9c1.2-0.5,1.3-0.6,0.8-1c-0.9-0.6-0.6-0.7,1.7-1c1.7-0.2,1.9-0.2,1.8,0.7c0,0.7-0.5,1.1-1.8,1.4c-2,0.5-2.2,1.1-0.7,1.7c1,0.4,1,0.4,0,0.4c-0.5,0-1,0.4-1,0.7c0,0.5,0.5,0.7,1.8,0.7c1,0,2.1,0.3,2.5,0.7c1.1,1.2,2,3.7,1.7,4.9c-0.2,0.9-0.1,1,0.4,0.5c0.5-0.4,0.8-0.4,1.5,0c1.1,0.9,1,1.3-0.3,1c-0.7-0.2-1.2,0-1.3,0.4c-0.3,0.8,0,1.2,1,1.2c0.5,0,0.6-0.1,0.1-0.6c-0.5-0.6-0.4-0.6,0.4-0.4c1.1,0.3,1.3,2,0.4,2c-0.4,0-0.4,0.1,0.1,0.5c0.6,0.4,0.6,0.5,0,1c-0.5,0.5-0.6,0.5-0.3,0c0.2-0.3,0-0.6-0.4-0.6c-0.5,0-0.7,0.4-0.6,1.2c0.1,1.7,1.2,2.9,2.2,2.5c0.6-0.2,0.6-0.1,0.1,0.5c-0.5,0.6-0.5,0.9,0,1.6c1.3,1.7,2.5,2.5,3.8,2.4c0.7-0.1,1.4,0.1,1.7,0.5c0.4,0.6,1.8,0.3,1.9-0.6c0-0.3,0.1-1,0.2-1.7c0.1-0.6,0.2-1.8,0.3-2.5c0.1-1.4,1.7-3.4,2.5-3.2c0.8,0.3,1.9-0.9,2.3-2.3c0.1-0.7,0.5-1.2,0.8-1.2c0.8,0,3.6-2.3,3.6-3.1c0-0.8-1-0.9-1.7-0.1c-0.3,0.3-0.5,0.1-0.5-0.7c0-1.1,0.1-1.1,1.4-0.9c1.2,0.3,1.3,0.2,0.8-0.4c-0.5-0.6-2-1.1-4.1-1.4c-0.9-0.1,0.2-1.3,1.2-1.3c0.5,0,0.8-0.4,0.8-0.9c0-0.7-0.3-0.9-1.2-1c-1,0-1.1,0-0.2-0.4c0.8-0.3,0.7-0.4-0.6-0.7c-1.5-0.3-1.6-0.4-0.7-1c0.8-0.6,0.8-0.6,0-0.7c-0.5,0-1.1,0-1.2,0c-0.2,0-0.6-0.6-0.8-1.3c-0.3-0.7-0.7-1.3-0.9-1.2c-0.2,0.1-0.3-0.4-0.2-1.2c0.3-1.7-0.8-1.9-1.6-0.4c-0.3,0.6-0.5,0.8-0.5,0.5c0-0.4-0.3-0.5-0.6-0.3c-0.3,0.2-1,0.4-1.4,0.4c-0.8,0.1-0.7,0,0.2-0.7c0.8-0.6,0.9-0.9,0.4-0.9c-0.4,0-1.1-0.1-1.7-0.3C90.5,67.3,89.8,67.5,89.3,68z"/><path fill="#000000" d="M130.4,70c-0.2,0.3,0.2,0.5,0.9,0.5c0.7,0,1.1,0.2,0.9,0.5c-0.1,0.2,0,0.5,0.4,0.5c0.9,0,3.2-0.9,3-1.2C135.2,69.7,130.7,69.5,130.4,70z"/><path fill="#000000" d="M125.1,70.7c0,0.7,1.7,1.8,2.7,1.7c1-0.1,1.1,0,0.5,0.3c-0.6,0.5-0.6,0.5,0,0.5c0.6,0,0.6,0,0,0.5c-0.6,0.4-0.6,0.5,0,0.9c0.5,0.3,0.9,0,1.8-1.2c1.1-1.6,1.1-1.7,0.2-2.3c-1-0.8-2.2-0.9-1.7-0.1c0.2,0.3,0.1,0.4-0.3,0.1C127.6,70.7,125.1,70.4,125.1,70.7z"/><path fill="#000000" d="M60.1,73.1c-0.7,0.5-1.6,2.2-1.2,2.6c0.1,0.1,0.9,0.3,1.7,0.3c1.4,0,1.4,0,0.3,0.4l-1.2,0.3l1.2,0.5c0.9,0.4,1.5,0.3,2.6-0.2c1.2-0.6,1.4-0.8,1-1.6c-0.3-0.5-0.6-0.7-0.9-0.6c-0.2,0.2-0.4,0-0.4-0.2c0-0.3-0.2-0.5-0.6-0.5c-0.3,0-0.9-0.3-1.2-0.6C60.9,73.1,60.4,73,60.1,73.1z"/><path fill="#000000" d="M186.1,74.9c-0.8,0.9-1.4,1.2-2.9,1.1c-3.8-0.1-6.9,1.1-6.4,2.5c0.2,0.6,0,0.9-0.4,0.8c-0.3,0-1.4,0-2.3,0c-1.9,0-2.3,0.9-0.8,1.8c0.5,0.3,0.9,1,0.9,1.6c0,0.9,0,0.9-1.2-0.3c-1.2-1.3-1.5-1.4-2.8-0.9c-0.7,0.3-0.7,0.3,0.1,0.6c0.8,0.3,0.8,0.4-0.2,0.4c-0.6,0-1.2-0.2-1.3-0.6c-0.5-1.3-1.4-0.3-1.2,1.3c0.1,1.3,0.4,1.6,1.4,1.7c1.2,0.1,2.1,1.8,1.1,1.8c-0.3,0-0.5-0.3-0.5-0.7s-0.3-0.7-0.7-0.7s-0.7,0.3-0.7,0.6c0,1.1-1.3,2.1-2.7,2.1c-1.1,0-1.2,0-0.3-0.4c1.7-0.6,2-1.5,1.6-3.6c-0.2-1.1-0.2-2.4-0.1-2.9c0.4-1.3-2-1.2-2.4,0c-0.1,0.5-0.5,0.9-0.7,0.9c-0.6,0-0.4,2,0.4,2.7c0.9,1,0.3,1.2-1.4,0.4c-2.8-1.3-3.5-1.3-3.7-0.4c-0.1,0.6-0.6,0.8-1.8,0.8c-0.9-0.1-1.8,0.1-2.2,0.4c-0.4,0.3-0.7,0.3-0.9,0c-0.4-0.6-3.8,0.6-3.8,1.3c0,0.2-0.5,0.4-1,0.4c-0.7,0-0.9-0.2-0.7-0.9c0.1-0.6,0-0.9-0.4-0.9c-0.3,0-0.6,0.5-0.5,1.2c0,0.8-0.2,1.2-0.6,1.2c-0.9-0.2-2.5,0.8-2.1,1.4c0.2,0.3-0.1,0.4-0.9,0.3c-0.9-0.2-1.2-0.1-1,0.4c0.3,0.8,0,0.8-1.2,0.2c-0.5-0.3-0.9-0.8-0.9-1.2c0-0.4-0.4-1-0.8-1.3c-0.7-0.6-0.6-0.6,0.6-0.1c1.8,0.6,4.4,0.4,4.6-0.3c0.2-0.6-3.2-2.5-4.5-2.5c-0.5,0-1-0.2-1.2-0.5c-0.1-0.2-0.6-0.3-0.9-0.2c-1,0.4-1.9-0.3-1.1-0.8c0.5-0.3,0.4-0.4-0.3-0.5c-0.5,0-1.1,0-1.4,0c-0.2,0-0.8,0.1-1.2,0.2c-0.7,0.1-1.7,0.5-4,1.5c-0.8,0.4-2.6,1.9-3.9,3.5c-1.3,1.5-3.2,3.3-4.2,3.9c-1.5,1-1.7,1.2-1.3,2.5c0.2,0.7,0.3,1.5,0.1,1.6c-0.7,0.6,1.3,0.7,2.3,0c1.2-0.7,1.2-0.7,1.7,0.9c0.3,0.9,0.7,1.8,1,1.9c0.8,0.5,2.3-0.7,2.3-1.8c0-0.6,0.4-1.3,0.8-1.6c0.6-0.4,0.7-0.6,0.2-1c-1-1-0.7-2.2,0.6-3.1c0.6-0.4,1.4-1.2,1.6-1.8c0.2-0.6,0.8-1.1,1.3-1.1c1.5,0,1.6,0.9,0.1,2.1c-2.5,2.1-1.6,4.8,1.4,4c0.8-0.2,1.9-0.3,2.5-0.1c0.7,0.3,0.6,0.4-0.9,0.7c-2.9,0.5-3.2,0.6-2.6,1.3c0.3,0.3,0.3,0.9,0.1,1.2c-0.3,0.4-0.5,0.5-0.7,0.1c-0.6-0.9-1.2-0.6-1.2,0.6c0,1.3-0.6,1.8-2.3,2c-0.6,0-1.9,0.2-2.9,0.2c-1.9,0.2-2.9-0.6-2.5-1.7c0.1-0.4,0-0.7-0.5-0.7c-0.6,0-0.6,0.3-0.4,1.4c0.2,1.1,0.1,1.4-0.4,1.4c-0.4,0-1.1,0.3-1.4,0.7c-0.4,0.4-0.7,0.6-0.7,0.5s-0.7,0.5-1.7,1.3c-1,0.9-1.9,1.4-2.4,1.2c-0.5-0.1-0.6,0-0.4,0.3c0.2,0.4-0.1,0.6-1,0.6c-1.3,0-1.3,0-0.2,0.5c1,0.5,1.8,2.1,1.4,3.2c-0.1,0.4-1,0.5-2.5,0.4l-2.4-0.1l-0.2,2c-0.3,2.5-0.1,3,1.2,3.4c2.1,0.7,5.4-0.5,4.7-1.7c-0.4-0.6,3-3.7,3.7-3.5c0.4,0.1,1.1,0,1.6-0.4c0.9-0.6,1-0.6,2,0.6c0.6,0.6,1.6,1.5,2.4,1.8c0.7,0.4,1.2,1,1.2,1.4c0,0.4,0.2,0.6,0.5,0.4c0.3-0.2,0.4-0.5,0.2-0.7c-0.1-0.2,0-0.5,0.3-0.6c0.4-0.1,0.1-0.5-0.6-0.8c-1.3-0.7-2.7-2.3-2.8-3.2c0-0.9,0.6-0.6,2.3,0.8c0.8,0.7,1.7,1.4,1.9,1.4c0.2,0,0.4,0.4,0.4,0.9c0,0.5,0.6,1.3,1.2,1.8c0.7,0.6,1,1,0.7,1c-0.3,0-0.4,0.2-0.3,0.5c0.5,0.7,0.8,0.1,0.9-1.3c0-1,0.3-1.3,1.2-1.4c1-0.1,1.2,0.1,1.2,0.9c0.1,1.7,1.6,2.5,4,2.4c2.3-0.1,2.6,0.3,1.7,2.7c-0.6,1.4-3.2,1.8-6.4,0.9c-3-0.8-3.7-0.7-3.9,0.3c-0.2,0.9-0.2,0.9-2,0c-1-0.5-2.5-1.2-3.3-1.5c-1-0.3-1.4-0.7-1.1-1c0.2-0.2,0.4-0.8,0.2-1.2c-0.2-0.7-0.6-0.8-3.3-0.6c-1.7,0.1-3.6,0.5-4.3,0.7c-0.6,0.3-1.7,0.5-2.3,0.5c-1.4-0.1-3.5,1.8-3.9,3.6c-0.1,0.7-0.7,1.4-1.2,1.5s-1.5,1.2-2.2,2.4c-1,1.7-1.2,2.7-1.2,5.4c0,3,0,3.4,1.2,4.6c0.7,0.7,1.3,1.4,1.3,1.7c0,0.2,0.8,0.9,1.8,1.5c1.3,0.9,1.9,1.1,2.9,0.7c0.6-0.2,1.5-0.3,1.9-0.2c0.5,0.1,1.8,0,2.9-0.4c1.9-0.6,2.1-0.6,2.6,0.2c0.3,0.5,1.1,0.8,1.8,0.8c1.1,0,1.2,0.1,1.2,2.1c0,1.5,0.3,2.5,1,3.2c1.8,2,2.4,5.1,1.3,7.1c-0.9,1.7-0.9,2.2,0.2,4.3c0.5,1,1.1,2.6,1.2,3.6c0.2,1,0.6,2.2,0.9,2.5c0.6,0.7,1.4,2.8,1.2,3.3c-0.2,0.8,1.3,1.2,3.5,1c2.1-0.2,2.6-0.6,4.5-2.5c1.2-1.2,2-2.5,1.9-2.9c-0.1-0.4,0.2-1.1,0.9-1.6c0.9-0.8,1-1.2,0.7-2.1c-0.5-1.2,0.4-2.3,2.6-3.5c0.8-0.4,1-0.9,1-2.6c0-1.1-0.2-2.2-0.5-2.3c-0.6-0.4-0.6-2.7,0-4.1c0.3-0.6,1.7-2.1,3.1-3.4c2.4-2.2,4.3-4.9,4.3-6.3c0-0.6-0.4-0.6-2.1-0.3c-2.3,0.4-3,0.3-3-0.7c0-0.3-0.6-1.1-1.2-1.6c-1.2-0.9-2.1-2.1-2.7-3.7c-0.2-0.4-1-2-1.8-3.7c-1.8-3.7-2-4.3-1.1-3.1c0.5,0.7,0.7,0.7,0.7,0.2c0-0.7,3.2,3.9,3.2,4.7c0,0.3,0.6,1.2,1.4,2.2c0.8,1,1.4,2.3,1.4,3c0,1.2,0.1,1.2,1.4,0.9c3.1-0.7,7.3-3.1,8.8-5l1-1.3l-1.3-1.1c-0.8-0.7-1.5-0.9-1.8-0.6c-0.6,0.6-2.1,0.5-2.8-0.2c-2.6-2.6-2.5-5.1,0.1-2.6c1.1,1.1,1.8,1.3,2.6,1.2c0.7-0.2,1.2,0,1.3,0.4c0.2,0.5,1,0.7,3.2,0.7c2.4,0,3.1,0.2,3.8,0.9c0.5,0.5,1.2,0.9,1.6,0.9c0.6,0,0.6,0.1,0,0.5c-0.6,0.4-0.6,0.5,0.2,0.7c0.5,0.2,1,0.1,1.2-0.3c0.2-0.4,0.4-0.5,0.5-0.2c0.3,2.9,2.6,9.5,3.3,9.5c0.6,0,1.8-2.6,1.8-3.8c0-0.7,0.7-1.7,2.3-2.9c1.3-1,2.3-2,2.3-2.2c0-0.2,0.4-0.4,0.8-0.4c0.5,0,1.1-0.3,1.4-0.6c0.5-0.4,0.7-0.4,0.8,0c0.1,0.3,0.6,1,1.1,1.6c0.5,0.6,0.9,1.4,0.9,1.9c0,0.6,0.3,0.8,1,0.7c1.1-0.1,1.6,1,1.7,3.8c0,0.9,0.4,2,0.7,2.5c0.4,0.5,0.7,1.2,0.7,1.6c0,0.7,1.4,2.3,2,2.3c0.6,0-0.6-2.7-1.7-3.8c-1.2-1.2-1.4-2.1-0.8-3.8c0.3-0.9,0.5-0.8,2.1,0.8c1.7,1.7,1.8,1.7,2.9,0.9c1.5-1.1,1.5-3.1-0.1-4.8c-1.2-1.2-1.2-1.3-0.4-2.2c0.5-0.6,1.4-0.9,2.4-0.9c0.9,0,1.8-0.2,2.1-0.5c0.3-0.3,0.8-0.5,1.2-0.5c0.9,0,2.5-1.2,2.9-2.3c0.2-0.4,0.6-1.2,1.1-1.8c0.4-0.6,0.6-1,0.3-1s-0.4-0.3-0.3-0.7c0.2-0.4-0.1-1.2-0.5-1.9c-0.8-1.2-0.8-1.2,0.2-2.1c0.6-0.5,0.8-0.9,0.6-0.9c-0.2,0-0.6-0.1-0.9-0.2c-0.2,0-0.7-0.1-1-0.1c-1.1-0.1-0.6-1.3,0.6-1.9c0.8-0.4,1.3-0.4,1.5,0c0.2,0.3,0.6,0.4,1.1,0.2c0.6-0.2,0.9,0,1.1,0.7c0.1,0.5,0.4,1,0.6,1s0.4,0.5,0.4,1.2c0,0.7,0.3,1.2,0.7,1.2c1.1,0,1.3-1.2,0.5-2.5c-0.7-1.1-0.6-1.2,0.7-2.8c0.9-0.9,1.7-1.5,2.1-1.3c0.7,0.3,3.1-1.7,4.3-3.8c1.8-3,1.5-6.3-0.6-5.5c-0.4,0.1-1.1,0-1.4-0.4c-0.5-0.5-0.2-1,1.8-2.8c2.2-2,2.5-2.2,5.1-2.3c1.5,0,3.3,0,4,0.3c0.8,0.2,1.2,0.1,1.2-0.2c0-0.6,1.4-2.1,2.5-2.5c0.4-0.1,1.1,0,1.4,0.4c0.6,0.6,0.8,0.5,1.6-0.3c0.6-0.5,1.2-0.9,1.5-0.9c0.8,0-0.5,1.6-3.4,4c-2.6,2.2-2.7,2.2-2.4,4.1c0.1,1.1,0.5,2.2,0.6,2.6c0.3,0.6,0.5,0.6,0.7-0.2c0.2-0.5,0.8-1.4,1.4-1.9c0.6-0.6,1.1-1.2,1.1-1.5c0-0.2,0.2-0.5,0.5-0.6c0.4-0.1,0.4-0.4,0-1.1c-0.3-0.6-0.3-1.1,0.2-1.8c0.6-0.9,1.1-1,4-1.3c1-0.1,2.1-0.4,2.5-0.7c0.4-0.4,1.7-0.9,2.8-1.2l2.1-0.5l-1.2-1.2l-1.1-1.1l1.8,0c1.2,0,1.8,0.1,1.8,0.5c0,0.8,1.5,1.4,1.8,0.7c0.1-0.3,0.6-0.9,1.1-1.3c0.9-0.8,0.9-0.8,0-1.7c-0.8-0.7-1.1-0.8-1.4-0.2c-0.3,0.5-0.5,0.4-0.9-0.6c-0.6-1.6-3.7-3.1-6.1-3.1c-1.3,0-1.8,0.2-1.8,0.7s-0.2,0.6-0.8,0.4c-0.5-0.2-2-0.4-3.4-0.5c-1.4,0-2.7-0.1-2.9-0.1c-0.2,0-0.4-0.4-0.4-0.7c0-0.8-1.9-1.3-3.5-1c-1.1,0.3-2.9-0.4-3.5-1.3c-0.2-0.2-0.9-0.3-1.5-0.1c-0.6,0.1-1.2,0.1-1.2-0.1c0-0.5-2.3-1-3.1-0.6c-0.3,0.1-0.6,0.5-0.6,0.8c0,0.9-0.9,1.1-3,0.7c-1.4-0.2-2-0.1-2.4,0.4c-0.5,0.6-0.6,0.6-1.6-0.4c-0.6-0.6-1.4-1-1.8-1c-0.5,0-0.4-0.2,0.2-0.6c0.8-0.6,0.7-0.7-0.6-1c-1-0.2-1.6-0.2-1.7,0.2c-0.2,0.6-3.3,0.7-3.3,0c0-0.3-0.8-0.5-2-0.4c-1.1,0.1-2.3,0-2.6-0.2c-0.3-0.2-0.8-0.1-1.1,0.1c-0.6,0.5-3.1,1.2-3.1,0.8c0-0.1,1.2-0.7,2.5-1.4c1.4-0.7,2.6-1.6,2.8-1.9c0.3-0.9-1.4-1.7-3-1.5c-0.7,0.1-1.3,0-1.3-0.2c0-0.2-0.3-0.4-0.7-0.4c-0.4,0-0.6-0.2-0.4-0.5C189.3,73.1,187,73.8,186.1,74.9z M143.6,107.5c-0.4,0.8-0.2,1.2,1,2.3c1.2,1.1,1.4,1.5,0.9,1.8c-0.4,0.2-1.3,0.3-2.1,0.1c-2.3-0.4-5.4-0.2-6,0.3c-0.9,0.9-1.2,0.6-1.1-0.8c0.1-1.3,1.9-4.2,2.5-4.2c0.6,0,1.6,0.8,1.5,1.2c0,0.2,0.2,0.5,0.5,0.6c0.4,0.1,0.5-0.1,0.3-0.6c-0.2-0.5,0.1-0.9,1-1.2C144,106.4,144.2,106.4,143.6,107.5z M153.8,107.5c0,0.2-0.4,0.6-1,1c-0.9,0.6-0.9,0.6,0,1.7c0.5,0.6,1,0.9,1.1,0.8s0.4,0.1,0.5,0.5c0.2,0.5,0,0.7-0.5,0.7c-0.6,0-0.6,0.1-0.2,0.6c0.3,0.3,0.6,1,0.6,1.6c0,0.9-0.2,1.1-1.3,1.1c-1.7,0-2.6-1-2-2.2c0.4-0.6,0.3-1.2-0.4-2c-1.2-1.6-1.1-2.9,0.3-3.7C152,106.7,153.8,106.7,153.8,107.5z"/><path fill="#000000" d="M161.9,75.1c-0.5,0.2-1.7,0.5-2.6,0.7c-2.1,0.3-5.8,3.5-4.1,3.5c0.9,0,1.7-0.4,2.9-1.7c0.3-0.3,1.8-0.9,3.2-1.3c1.4-0.4,2.6-1,2.6-1.2C164,74.5,163.1,74.6,161.9,75.1z"/><path fill="#000000" d="M52.9,76.4c0.3,0.2,0.5,0.6,0.3,0.9c-0.2,0.3,0,0.5,0.6,0.5c0.5,0,1.2,0.1,1.6,0.3c1.6,0.6,0.6-0.8-0.9-1.4C52.7,75.9,52,75.8,52.9,76.4z"/><path fill="#000000" d="M57.1,77.4c0,0.2,0.5,0.5,1.1,0.5c0.8,0,0.9-0.1,0.3-0.5C57.7,76.8,57.1,76.8,57.1,77.4z"/><path fill="#000000" d="M47.3,78.6c0.3,0.1,0.8,0.1,1.2,0c0.3-0.1,0-0.2-0.6-0.2C47.3,78.4,47,78.5,47.3,78.6z"/><path fill="#000000" d="M101.9,78.6c0.3,0.1,0.7,0.1,0.9,0c0.2-0.1-0.1-0.3-0.6-0.2C101.7,78.4,101.5,78.5,101.9,78.6z"/><path fill="#000000" d="M42.7,79.5c-2.3,0.8-2.5,1-1.2,1.3c0.6,0.1,1.1,0,1.2-0.4c0.1-0.4,0.5-0.6,0.9-0.5c0.3,0.1,0.8-0.1,1.1-0.5C45.4,78.6,44.9,78.6,42.7,79.5z"/><path fill="#000000" d="M49.5,80.5c0.2,0.8,0.1,1.1-0.6,1.1c-0.5,0-1.1-0.2-1.2-0.5c-0.5-0.7-2.1-0.6-2.9,0.3c-0.7,0.7-0.6,0.7,1.2,0.5c1.9-0.3,2.7,0.2,1.2,0.7c-0.5,0.1-0.2,0.1,0.6,0c0.8-0.1,1.9-0.3,2.5-0.4c1.8-0.2,1.8-0.2,1.8-0.7c0-0.3-0.3-0.5-0.7-0.5c-0.4,0-1.1-0.4-1.4-0.8C49.3,79.5,49.2,79.6,49.5,80.5z"/><path fill="#000000" d="M58.9,80c0.3,0.1,0.7,0.1,0.9,0c0.2-0.1-0.1-0.3-0.6-0.2C58.7,79.8,58.5,79.9,58.9,80z"/><path fill="#000000" d="M153.2,80.6c-0.6,0.8-0.7,0.9-0.1,0.9c0.4,0,0.8,0.3,1,0.7c0.2,0.4,0.7,0.7,1.2,0.7c0.8,0,0.8-0.1,0.4-0.7c-0.3-0.4-0.5-1.1-0.3-1.6C155.6,79.4,154.2,79.4,153.2,80.6z"/><path fill="#000000" d="M55,80.9c-0.7,0.6-0.7,0.6,0,0.4c0.4-0.1,0.8,0,0.8,0.2c0,0.3,0.3,0.5,0.7,0.5s0.7-0.4,0.7-0.9C57.1,80,56.3,79.9,55,80.9z"/><path fill="#000000" d="M61.1,81.2c0.5,1.5,0.4,1.5,4.4,1.6c2.8,0.1,3.7,0,3.7-0.5c0-0.9-1.2-1.2-3.2-0.9c-2.1,0.3-4.3-0.1-3.9-0.7c0.1-0.3,0-0.5-0.5-0.5C61,80.2,60.8,80.5,61.1,81.2z"/><path fill="#000000" d="M39.6,84.1c-0.3,0.7-0.6,1.5-0.7,1.7c-0.1,0.2,0.3,0.6,1,1c1,0.5,1.3,0.5,1.8-0.2c0.3-0.4,1.2-1.2,2.1-1.7c1.7-1,1.6-1.1-1.9-1.8C40.2,82.9,40,82.9,39.6,84.1z"/><path fill="#000000" d="M59.2,84.1c-0.1,0.4-0.1,1.1,0,1.5c0.2,0.6,0.4,0.6,0.6,0.2c0.1-0.3,0.5-0.6,0.8-0.6c0.3,0,0.8-0.3,1.2-0.7c0.5-0.6,0.5-0.7-0.1-0.7c-0.4,0-1-0.1-1.4-0.3C59.7,83.4,59.4,83.6,59.2,84.1z"/><path fill="#000000" d="M55.6,84.6c0.1,0.4-0.1,0.6-0.6,0.6c-0.8,0-0.8,0,0,0.6c0.5,0.3,1.1,0.7,1.2,0.9c0.4,0.6,1.8-0.1,1.8-0.8c0-0.4-0.2-0.6-0.5-0.6c-0.3,0-0.4-0.3-0.3-0.6c0.2-0.4-0.1-0.6-0.8-0.6C55.7,84,55.4,84.2,55.6,84.6z"/><path fill="#000000" d="M63.9,84.5c-0.5,0.3-0.9,1.1-1,1.6c-0.1,0.7,0.1,1,0.9,1c0.9,0,0.9,0,0.1,0.4c-0.6,0.2-0.2,0.5,1.6,0.8c3.1,0.6,4.7,0.6,4.3,0.1c-0.4-0.6,0.1-0.5,1.4,0.3c0.6,0.4,1,1,0.8,1.2c-0.1,0.2-0.1,0.3,0.2,0.2c0.2-0.2,0.9,0.1,1.5,0.6c0.9,0.9,1,1,0.3,1.8c-0.4,0.5-0.6,1-0.4,1.1c0.3,0.3,0,0.4-1.7,0.5c-0.4,0-0.7,0.3-0.8,0.6c-0.1,0.4,0.2,0.5,1.2,0.3c1.1-0.2,1.7-0.1,2.3,0.6c0.7,0.8,2.9,2,3.7,2c0.1,0-0.1-0.4-0.6-0.9c-0.9-1-0.6-1.2,0.7-0.5c0.7,0.4,0.9,0.3,0.9-0.3c0-0.5-0.4-1.1-0.9-1.4c-0.9-0.6-1.3-1.9-0.5-1.9c0.2,0,0.8,0.3,1.2,0.7c0.6,0.6,0.9,0.6,1.7,0.2c1-0.5,1-0.6,0.1-1c-0.5-0.3-1-0.6-1.1-0.7c-0.1-0.2-0.8-0.6-1.5-0.8c-0.7-0.3-1.3-0.8-1.3-1.1s0.2-0.4,0.5-0.2c0.3,0.2,0.4,0,0.4-0.3c-0.2-0.7-3-2.2-4.2-2.2c-0.5,0-0.8-0.3-0.8-0.6c0-0.3-0.5-0.7-1.2-0.8c-0.6-0.1-1.2,0-1.2,0.1c0,0.2-0.4,0.4-1,0.4c-0.6,0-0.9-0.2-0.7-0.6c0.4-1.1-0.8-1.8-1.9-1.2c-0.7,0.4-0.9,0.8-0.7,1.8c0.3,1.8-0.5,1.8-1.1,0c-0.3-0.9-0.3-1.5,0-1.8C65.9,83.6,64.9,83.7,63.9,84.5z"/><path fill="#000000" d="M44.1,85.3C43,86,43,86.6,44.2,86.6c0.8,0,0.9,0.1,0.5,0.6c-0.5,0.6-0.2,0.7,1.4,0.9l2,0.2l-2,0c-1.9,0.1-2.4,1-0.5,1c0.5,0,0.9,0.2,0.9,0.5c0,0.4,0.7,0.4,2.2,0.2c1.2-0.2,3-0.3,4-0.3c1.4,0,1.7,0,1.2-0.4C53.3,89,53.4,89,54.1,89c0.8,0,0.8-0.1-0.2-0.6c-0.6-0.3-1.4-1.2-1.7-2.1c-0.7-1.7-2.3-2-1.8-0.4c0.2,0.9,0.2,1-0.3,0.3c-0.4-0.5-1.2-0.7-2.3-0.7c-1,0-1.8-0.1-1.8-0.3C46.1,84.7,45.1,84.8,44.1,85.3z"/><path fill="#000000" d="M58.6,87.2c-0.6,0.7-0.2,1.5,1.1,1.9c1.2,0.4,1.7-0.6,0.9-1.7C59.9,86.5,59.3,86.4,58.6,87.2z"/><path fill="#000000" d="M16.9,87.5c-1,0.3-2.8,1.2-4.4,2.2c-1.4,1-1.4,1-0.5,1.7c0.6,0.4,1.5,0.9,2.1,1.1c1.5,0.5,0.3,1.2-1.4,0.8c-0.7-0.1-1.6,0-2.1,0.3C9.8,94,9.8,94,10.6,94c0.5,0,0.7,0.2,0.5,0.6c-0.2,0.4,0.2,0.4,1.6,0.2c1.7-0.2,1.9-0.1,1.9,0.6c0,0.5-0.3,0.9-0.7,0.9c-1.5,0.1-1.7,0.2-2.1,0.9c-0.6,1-0.6,1.4,0.4,1.4c0.6,0,0.6,0.1,0.1,0.4c-0.4,0.3-0.5,0.5-0.1,0.7c0.3,0.2,0.7,0.2,0.9,0c0.3-0.1,0.6,0,0.8,0.4c0.2,0.4,1.1,0.7,2,0.8l1.6,0.1l-1.2,1.2c-0.7,0.7-1.2,1.3-1,1.3c0.6,0,3.9-2.5,3.9-2.9c0-0.7,2.5-2.6,3-2.3c0.3,0.2,0.2,0.4-0.3,0.5c-0.5,0.1-0.8,0.5-0.8,0.8c0,0.5,0.2,0.6,0.9,0.2c0.5-0.2,1-0.7,1.1-0.9c0.2-0.6,5.9,0.8,7,1.8c0.6,0.6,0.9,0.6,1.3,0.2c0.6-0.6,1.1-0.1,3,2.5c0.5,0.6,1.4,1.8,2,2.5c0.6,0.7,1,1.7,0.8,2c-0.1,0.4,0.2,1,0.8,1.4c1.4,1,1.9,0.9,1.1,0c-0.6-0.7-0.6-0.7,0.3-0.2c1.2,0.6,1.7,1.8,1.1,2.2c-0.3,0.2-0.5,0-0.5-0.2c0-0.3-0.1-0.5-0.3-0.5c-0.2,0-0.3,1.5-0.3,3.4c0,2.8,0.3,3.8,1.3,5.5c0.6,1.2,1.6,2.2,2.2,2.4c0.5,0.1,1.2,0.9,1.6,1.7c1.3,2.8,2,4,2.5,4c0.2,0,0.4,0.3,0.4,0.6c0,0.4,0.5,1,1,1.5c0.9,0.8-0.3-1.3-2.5-4.5c-0.3-0.4-0.4-1-0.1-1.2s0.6,0,0.9,0.5c0.3,0.5,1.6,2,2.9,3.5c1.4,1.5,2.5,3,2.5,3.6c0,0.7,0.6,1.3,2.5,2.3c1.4,0.6,3.1,1.2,3.8,1.2c0.7,0,1.8,0.4,2.6,0.9c0.8,0.5,1.8,0.9,2.2,0.9c0.4,0,1.2,0.6,1.8,1.3c1.5,1.8,3.7,3.2,4,2.4c0.2-0.8,1.5-0.7,1.5,0.1c0,0.4-0.3,0.7-0.6,0.7c-1,0-2.3,2.4-2.2,3.8c0.1,0.8-0.3,1.8-1.1,2.7c-0.8,1-1.2,1.8-1,2.5c0.1,0.6,0,1.1-0.2,1.2c-0.2,0.1,0.4,1.8,1.5,3.9c1.5,2.8,2.4,4,3.6,4.6c1.3,0.7,1.7,1.2,1.8,2.5c0.2,1.9-0.8,9.9-1.5,11.6c-0.6,1.7-0.8,4.6-0.3,4.6c0.5,0,0.3,2.8-0.2,3.7c-0.1,0.3-0.5,0.3-0.8,0.2c-0.3-0.2-0.4-0.1-0.2,0.2c0.2,0.3,0.5,1.4,0.6,2.4c0.1,1,0.5,2.2,0.9,2.5c0.7,0.7,2.6,0.4,2.4-0.5c-0.1-0.3,0.4-1.2,0.9-2.1c0.9-1.2,1-1.6,0.5-2.2c-0.5-0.6-0.5-0.8,0.2-1.4c0.5-0.3,0.9-1.2,0.9-2c0-1,0.3-1.4,0.8-1.4c0.4,0,0.9-0.4,1.1-0.9c0.2-0.6,0.7-0.9,1.6-0.9c1.8,0,2.6-1.4,1.6-2.5c-0.7-0.7-0.6-0.7,0.6-0.6c1.4,0.2,3-0.7,3-1.8c0-0.3,0.6-1.1,1.4-1.8c0.8-0.7,1.4-1.8,1.4-2.4c0-1.2,1.8-2.5,3.4-2.6c1.2,0,2.6-2.7,2.9-5.2c0.1-0.9,0.8-2.5,1.5-3.5c1.3-1.8,1.5-3.7,0.4-3.7c-0.3,0-0.8-0.3-1.2-0.7c-0.4-0.4-1.6-0.7-2.6-0.8c-1.1,0-1.8-0.2-1.7-0.4c0.3-0.5-2-1-2.6-0.6c-0.4,0.2-0.4,0.1-0.2-0.2c0.2-0.3,0-0.6-0.4-0.6c-0.4,0-0.7,0.3-0.9,0.6c-0.1,0.3-0.4,0.5-0.6,0.2c-0.2-0.2,0-0.7,0.4-1.1c0.6-0.6,0.6-0.9,0.2-1.7c-0.8-1.4-1.8-2.1-3.1-2.1c-0.6,0-1.6-0.4-2-0.9c-0.5-0.5-1.1-0.9-1.4-0.9c-0.3,0-0.6-0.2-0.7-0.6c-0.1-0.3-0.9-0.6-1.7-0.6c-0.8,0-2-0.2-2.7-0.5c-0.7-0.2-1.6-0.3-2.1-0.2c-0.5,0.1-0.7-0.1-0.6-0.3c0.5-0.7-0.9-1.5-2.1-1.2c-1.4,0.4-2.7-1-2.5-2.8c0.1-1.3,0-1.4-1.6-1.5l-1.7-0.1l0.6-2.1c0.6-1.9,0.6-2-0.2-2c-0.5,0-1.2,0.5-1.6,1.2c-1,1.5-2.7,1.5-4,0.1c-0.8-0.8-0.9-1.4-0.7-3.3c0.3-2.9,1.6-4.1,3.8-3.8c0.9,0.1,1.5,0,1.5-0.2c0-0.6,3.6-0.4,4.5,0.2c0.3,0.2,0.5,0.5,0.3,0.7c-0.1,0.2,0.2,0.9,0.7,1.4c1.1,1.3,1.2,0.5,0.4-1.9c-0.5-1.5-0.5-1.6,1.5-3.3c1.6-1.4,1.9-1.9,1.8-2.9c-0.1-0.7-0.1-1.2,0-1c0.3,0.3,1.5-0.9,1.5-1.5c0-0.2,0.5-0.6,1.1-0.7c0.6-0.1,1.2-0.7,1.3-1.2c0.1-0.5,1-1.2,1.9-1.6c2.2-0.9,2.4-0.9,1.6,0c-0.9,1-0.5,1.1,1.4,0.1c1.3-0.7,1.4-0.8,0.6-0.8c-1.2,0-2.7-1.8-1.8-2.4c0.4-0.2,0.1-0.4-0.6-0.4c-0.6,0-1.7,0.3-2.3,0.7c-0.6,0.4-0.5,0.1,0.5-0.7c1.3-1.2,2-1.4,3.8-1.4c1.2,0,2.3-0.2,2.5-0.5c0.1-0.3,0.7-0.5,1.2-0.5c0.9,0,0.9,0,0,1.6l-0.9,1.6h1.4c0.8,0,1.5,0,1.7,0c0.2,0,0.5,0.2,0.7,0.6c0.3,0.4,0.4,0.4,0.4,0c0-0.3-0.2-0.7-0.5-0.8c-0.3-0.2-0.4-0.5-0.2-0.7c0.1-0.2-0.2-0.5-0.7-0.6c-0.7-0.2-0.8-0.6-0.7-1.8c0.2-1.8-0.5-2.4-1.9-1.9c-0.6,0.2-0.6,0.1-0.2-0.1c0.4-0.3,0.2-0.7-0.8-1.5c-0.7-0.6-1.3-1.3-1.2-1.6c0.1-0.3-0.2-1.1-0.7-1.7c-0.9-1.1-1-1.1-1.4-0.3c-0.6,0.9-3.2,1-2.9,0c0.4-1-2-3-3.8-3.2c-1.6-0.1-1.7,0-1.6,1.1c0.1,0.7,0,1.5-0.2,1.8c-0.2,0.4,0,1,0.4,1.5c0.6,0.7,0.6,1.1,0.2,1.8c-0.3,0.6-0.7,1-1,1c-0.3,0-0.4,0.6-0.4,1.3c0.1,0.7,0,1.5-0.2,1.8c-0.6,0.9-2.1-0.6-2.1-2.1c0-0.7-0.3-1.1-0.8-1.1c-0.4,0-1.6-0.4-2.5-0.9c-0.9-0.5-2.1-0.9-2.6-0.9c-0.5,0-0.9-0.3-0.9-0.7c0-0.4-0.3-0.8-0.7-1c-1.2-0.5-0.8-2.3,0.7-3.6c1.2-1,1.2-1.2,0.6-1.2c-0.5,0-0.1-0.2,0.8-0.5c1.8-0.5,2.9-1.3,1.8-1.3c-0.4,0-0.9-0.2-1.1-0.5c-0.2-0.4,0-0.4,0.7-0.2c0.7,0.2,1.1,0,1.2-0.5c0.2-0.4,0.6-0.6,1-0.5c0.4,0.1,0.5,0,0.4-0.2c-0.2-0.3,0.1-0.3,0.9-0.1c1.3,0.3,1.7-0.6,0.6-1.6c-0.4-0.4-0.4-0.6,0.1-0.6c0.5,0,0.5-0.2-0.2-0.7c-1.2-0.9-1.8-0.9-1.5,0c0.1,0.4,0,0.7-0.2,0.7s-0.6,0.4-0.7,1c-0.3,1-1.3,1-1.4-0.1c0-0.4-0.1-0.8-0.1-1.1c0-0.2-0.4-0.1-0.7,0.2c-0.6,0.5-0.7,0.5-0.7-0.2c0-1.2-1.1-0.9-2.4,0.6c-1.1,1.3-1.3,1.3-1.7,0.6c-0.3-0.5-0.5-0.6-0.5-0.4c0,0.5-3.7,0.6-4.6,0c-0.8-0.5-2.5,0.2-2.2,0.9c0.1,0.4,0,0.6-0.1,0.6c-0.2,0-0.5-0.3-0.6-0.6c-0.1-0.3-1-0.6-2.1-0.6c-1.1,0-1.9-0.2-1.9-0.5c0-0.6-4-1.7-6.3-1.8c-1,0-2-0.2-2.1-0.4c-0.1-0.2-1.1,0-2.2,0.6c-2.3,1.1-3,1.2-1.7,0.2c0.9-0.7,0.9-0.7-0.5-0.4c-0.7,0.2-1.5,0.5-1.6,0.7c-0.3,0.4-3.8-0.5-4.4-1.1c-0.2-0.2-1.1-0.3-2-0.3c-0.9,0-3.1-0.3-4.7-0.6C18.9,87.6,17.2,87.4,16.9,87.5z M71.9,142.6c0,0.2-0.1,0.5-0.2,0.5c-0.1,0-0.4-0.2-0.5-0.5c-0.1-0.3,0-0.5,0.2-0.5C71.7,142.1,71.9,142.3,71.9,142.6z"/><path fill="#000000" d="M102,88.5c-0.6,0.4-0.6,0.5,0.1,0.5c0.4,0,0.7,0.1,0.7,0.3c-0.3,1.7,1.6,2.3,4,1.3c1.8-0.8,1.9-1.1,0.8-1.9c-0.5-0.4-1.2-0.5-2-0.2c-0.7,0.2-1.4,0.3-1.5,0.1c-0.1-0.1-0.3,0-0.3,0.4c0,0.5-0.2,0.4-0.6-0.1C102.9,88.3,102.5,88.2,102,88.5z"/><path fill="#000000" d="M57,89.3c-0.1,0.1-0.1,0.5,0,0.6c0.3,0.6,1.6,0.5,1.6,0C58.5,89.4,57.3,88.9,57,89.3z"/><path fill="#000000" d="M71.5,91.5c0,0.4,0.2,0.6,0.5,0.4c0.3-0.1,0.5-0.5,0.5-0.7c0-0.2-0.2-0.4-0.5-0.4C71.7,90.8,71.5,91.1,71.5,91.5z"/><path fill="#000000" d="M65.4,94.7c-0.2,1.2,0.7,2,1.3,1.2c0.1-0.3,0.6-0.4,0.9-0.2s0.6,0,0.6-0.2c0-0.2-0.5-0.6-1-0.7c-0.6-0.2-1.2-0.5-1.3-0.7C65.7,93.7,65.5,94,65.4,94.7z"/><path fill="#000000" d="M114.2,96.8c-0.4,0.6,0.2,3.3,0.7,3c0.7-0.5,0.9,1.2,0.2,1.9c-0.5,0.6-0.6,0.8-0.2,1.1c0.4,0.3,0.4,0.4,0,0.6c-0.4,0.1,0,0.3,0.8,0.3c1.7,0,3.1-1.1,2.5-1.9c-2-2.4-2.4-3-2.2-3.7c0.1-0.5,0-0.8-0.5-0.8c-0.4,0-0.5-0.2-0.4-0.5c0.1-0.3,0.1-0.5-0.2-0.5C114.8,96.4,114.4,96.6,114.2,96.8z"/><path fill="#000000" d="M112.2,100.1c0,0.2-0.3,0.5-0.6,0.5c-0.3,0-0.6,0.5-0.6,1.2c0,1.2,0.3,1.4,1.7,0.7c1.1-0.6,1.2-2.8,0.2-2.8C112.5,99.6,112.2,99.8,112.2,100.1z"/><path fill="#000000" d="M213.6,103.5c0,1.6,0.2,1.9,0.6,1.5c0.6-0.6,0.3-3.6-0.3-3.6C213.7,101.4,213.6,102.4,213.6,103.5z"/><path fill="#000000" d="M213.4,106.8c0,0.4,0.2,0.6,0.5,0.4c0.3-0.2,0.4-0.5,0.2-0.7C213.7,105.8,213.4,106,213.4,106.8z"/><path fill="#000000" d="M213.1,109.6c-0.5,1-0.4,1.1,0.5,1.1c1,0,2.6-0.7,2.2-1C213.9,108.5,213.6,108.5,213.1,109.6z"/><path fill="#000000" d="M123.3,112.8c0,0.4,0.2,0.6,0.5,0.4c0.3-0.1,0.5-0.5,0.5-0.7c0-0.2-0.2-0.4-0.5-0.4C123.5,112.1,123.3,112.4,123.3,112.8z"/><path fill="#000000" d="M212.3,113.2c-0.2,0.6-0.8,1.4-1.4,1.7c-0.6,0.3-1.2,0.7-1.2,0.9c0,0.2-0.6,0.4-1.3,0.4c-0.8,0-1.5,0.2-1.7,0.5c-0.2,0.4,0.1,0.4,1.2,0.2c1.2-0.2,1.4-0.2,1.2,0.2c-0.2,0.3-0.2,0.5,0,0.4c0.2-0.1,1.1-0.5,1.9-0.8c1.4-0.6,2.5-2.3,2.5-4C213.4,111.6,212.6,112,212.3,113.2z"/><path fill="#000000" d="M126.5,114.6c0,0.1,0.3,0.3,0.7,0.5c0.4,0.1,0.7,0,0.7-0.2c0-0.3-0.3-0.5-0.7-0.5S126.5,114.5,126.5,114.6z"/><path fill="#000000" d="M207.4,117.6c-0.4,0.3-0.5,0.5-0.1,0.5c0.3,0,0.7-0.2,0.8-0.5C208.5,117.1,208.3,117.1,207.4,117.6z"/><path fill="#000000" d="M205.8,118.3c0.2,1.1,0.7,1.4,0.7,0.3c0-0.6-0.2-1-0.4-1C205.8,117.6,205.7,117.9,205.8,118.3z"/><path fill="#000000" d="M198.9,124.8c-0.1,0.4,0,0.7,0.2,0.7c0.3,0,0.5-0.3,0.5-0.7c0-0.4-0.1-0.7-0.2-0.7S199.1,124.4,198.9,124.8z"/><path fill="#000000" d="M191.2,128.3c0,0.2,0.2,0.5,0.5,0.5c0.3,0,0.5-0.2,0.5-0.5c0-0.3-0.2-0.5-0.5-0.5C191.5,127.8,191.2,128,191.2,128.3z"/><path fill="#000000" d="M199,129.7c-0.2,0.6-0.2,1.1,0,1.2c0.3,0.3,1.1-0.9,1.1-1.7C200,128.3,199.2,128.7,199,129.7z"/><path fill="#000000" d="M69,131.2c0.8,0.3,1.6,0.7,1.8,0.9c0.2,0.2,0.6,0.4,1.1,0.4c0.4,0,0-0.4-0.9-0.9s-2-0.9-2.5-0.9C67.8,130.6,68,130.8,69,131.2z"/><path fill="#000000" d="M74.3,133.3c0,0.2,0.4,0.5,0.9,0.5c0.5,0,0.9-0.2,0.9-0.5c0-0.3-0.4-0.5-0.9-0.5C74.7,132.9,74.3,133.1,74.3,133.3z"/><path fill="#000000" d="M171.8,135.8c0,0.7,0.2,1.3,0.5,1.3c0.6,0,0.6-0.9,0-1.8C171.9,134.6,171.8,134.8,171.8,135.8z"/><path fill="#000000" d="M201.6,135.4c-0.8,0.4-0.9,0.6-0.3,1.1c0.8,0.7,1.7,0.1,1.4-1C202.6,135.1,202.3,135,201.6,135.4z"/><path fill="#000000" d="M195.8,137.4c-0.4,0.4-1.4,1.3-2.3,2.1l-1.6,1.2l1.4-0.3c0.8-0.1,1.7-0.7,2-1.2c0.3-0.5,1-0.9,1.5-0.9c1,0,1.2-0.6,0.3-1.3C196.6,136.8,196.3,136.8,195.8,137.4z"/><path fill="#000000" d="M190.3,143.2c0.4,0.3,1.3,1.4,2.1,2.4c1.7,2.4,3.6,4.4,4,4.4c0.2,0,0.4-0.4,0.6-0.9c0.1-0.5,0-0.9-0.2-0.9s-0.6-0.5-0.9-1.1c-0.6-1.2-4.7-4.5-5.6-4.5C189.8,142.6,189.8,142.8,190.3,143.2z"/><path fill="#000000" d="M203.5,144.4c-0.3,0.9-1.3,1.2-3.6,1.1c-1-0.1-1,0-0.3,1.5c0.5,1.1,1,1.4,1.9,1.2c0.2,0,0.6,0.1,1,0.4c0.8,0.7,2.1-1.2,2.3-3.3C204.9,143.7,203.9,143,203.5,144.4z"/><path fill="#000000" d="M206.1,147.6c0,0.4,0.2,1.2,0.4,1.7c0.4,0.8,0.4,0.8,0.5-0.2c0-0.6,0.2-0.9,0.3-0.6c0.4,1,0.8,0.7,0.8-0.5c0-0.7-0.3-1-1-1.1C206.4,146.9,206,147.1,206.1,147.6z"/><path fill="#000000" d="M214.6,147.2c0.1,0.2,0.6,0.5,1,0.5c0.4,0,0.6-0.2,0.6-0.5c0-0.3-0.4-0.5-1-0.5C214.7,146.8,214.4,146.9,214.6,147.2z"/><path fill="#000000" d="M217.8,147.9c-0.5,0.3-1.2,0.5-1.7,0.4c-0.5-0.1-0.8,0-0.8,0.2c0,0.2,0.4,0.4,1,0.5c1.4,0.1,3.3,1.5,3,2.2c-0.3,0.9,2.2,1.4,3.4,0.6c0.8-0.5,1.1-0.4,2.1,0.5c1.9,1.8,2.2,0.9,0.4-1.2C223,148.6,219.1,146.9,217.8,147.9z"/><path fill="#000000" d="M227.1,150c-0.7,0.3-0.8,0.4-0.1,0.4c0.4,0,0.9-0.2,1.1-0.4C228.3,149.5,228.3,149.5,227.1,150z"/><path fill="#000000" d="M149.9,151.1c-0.4,0.6-1.1,1.2-1.4,1.2c-0.7,0-0.9,0.5-0.7,2c0,0.5-0.1,1.1-0.4,1.4c-0.3,0.3-0.4,1.2-0.2,1.8c0.2,1,0.5,1.2,1.2,1.2c0.7-0.1,1.2-0.8,1.8-2.7C151.8,151,151.7,148.4,149.9,151.1z"/><path fill="#000000" d="M197.5,150.9c0.3,0.2,1.5,0.6,2.8,0.7c2.9,0.4,1.8-0.4-1.2-0.9C197.8,150.5,197.2,150.5,197.5,150.9z"/><path fill="#000000" d="M214.4,154.7c-0.6,0.2-1.1,0.7-1.2,1.1c-0.2,0.6-0.6,0.6-1.6,0.5c-1-0.2-1.5,0-2.3,1c-0.5,0.7-1,1.1-1,0.8c0-0.2-0.3,0.1-0.6,0.7c-0.4,0.6-1.4,1.4-2.5,1.8c-2,0.7-3.4,1.8-3.4,2.7c0,0.3,0.4,1.8,0.9,3.2c0.5,1.5,0.9,3.1,0.9,3.7c0,0.8,0.3,1.1,1.1,1.1c0.6,0,1.3-0.2,1.4-0.5c0.1-0.3,0.9-0.5,1.7-0.5c0.7,0,1.3-0.2,1.3-0.4c0-0.2,0.9-0.7,2.1-1.2c2.5-1,4.5-0.6,5.3,0.9l0.6,1.1l0.9-1c0.6-0.7,0.8-0.8,0.6-0.2c-0.1,0.4,0.1,1,0.5,1.3c0.4,0.3,0.6,0.8,0.6,1.2c0,0.9,1.1,1.6,3,1.8c2.5,0.3,3.3-0.1,4.9-3.1c2.5-4.8,2.2-6.3-2.2-10.8c-0.5-0.5-1.1-1.5-1.2-2.2c-0.1-0.7-0.6-1.4-0.9-1.6c-0.4-0.1-0.6-0.5-0.6-0.8c0-1.6-0.9-1-1.2,0.7c-0.2,1-0.5,2-0.7,2.1c-0.5,0.3-3.7-1.5-3.7-2.1c0-0.2,0.2-0.6,0.5-0.8C218.3,154.6,215.8,154.2,214.4,154.7z"/><path fill="#000000" d="M243.8,173.3c-0.1,0.4-0.1,1.2,0.1,1.7c0.3,1,0.4,1,1.4-0.5c0.6-0.9,0.8-1.4,0.6-1.2c-0.3,0.2-0.9,0.1-1.2-0.1C244.2,172.7,244,172.8,243.8,173.3z"/><path fill="#000000" d="M223.7,176.5c0.1,0.6,0.5,1.1,1,1.2c1.2,0.2,1-1.6-0.2-1.9C223.7,175.6,223.6,175.7,223.7,176.5z"/><path fill="#000000" d="M240.4,177.5c-1.1,1.1-2,2-2,2.2c0,0.1,0.5,0.3,1.2,0.3c0.6,0,1.2-0.2,1.2-0.4s0.6-1.1,1.2-1.9C243.8,175.6,242.6,175.4,240.4,177.5z"/></g></g></g>
</svg>